<mxfile host="app.diagrams.net" agent="Mozilla/5.0 (Windows NT 10.0; Win64; x64) AppleWebKit/537.36 (KHTML, like Gecko) Chrome/135.0.0.0 Safari/537.36" version="26.2.14">
  <diagram name="第 1 页" id="6Ic1Ix-YJcVRVv4MF7My">
    <mxGraphModel dx="1426" dy="751" grid="1" gridSize="10" guides="1" tooltips="1" connect="1" arrows="1" fold="1" page="1" pageScale="1" pageWidth="827" pageHeight="1169" math="0" shadow="0">
      <root>
        <mxCell id="0" />
        <mxCell id="1" parent="0" />
        <mxCell id="lbgxpwjEB8n5JkEXpVQK-3" value="&lt;font style=&quot;vertical-align: inherit;&quot; class=&quot;notranslate fyzs-translate-target fyzs-translate-target-wrapper&quot;&gt;&lt;font style=&quot;vertical-align: inherit;&quot; class=&quot;notranslate fyzs-translate-target fyzs-translate-target-box&quot;&gt;&lt;font style=&quot;vertical-align: inherit;&quot; title=&quot;Text&quot; class=&quot;notranslate fyzs-translate-target fyzs-translate-target-text&quot;&gt;老王&lt;/font&gt;&lt;/font&gt;&lt;/font&gt;" style="text;html=1;align=center;verticalAlign=middle;resizable=0;points=[];autosize=1;strokeColor=none;fillColor=none;fontSize=16;" vertex="1" parent="1">
          <mxGeometry x="190" y="228" width="60" height="30" as="geometry" />
        </mxCell>
        <mxCell id="lbgxpwjEB8n5JkEXpVQK-4" value="&lt;font style=&quot;vertical-align: inherit;&quot; class=&quot;notranslate fyzs-translate-target fyzs-translate-target-wrapper&quot;&gt;&lt;font style=&quot;vertical-align: inherit;&quot; class=&quot;notranslate fyzs-translate-target fyzs-translate-target-box&quot;&gt;&lt;font style=&quot;vertical-align: inherit;&quot; title=&quot;Text&quot; class=&quot;notranslate fyzs-translate-target fyzs-translate-target-text&quot;&gt;老孙&lt;/font&gt;&lt;/font&gt;&lt;/font&gt;" style="text;html=1;align=center;verticalAlign=middle;resizable=0;points=[];autosize=1;strokeColor=none;fillColor=none;fontSize=16;" vertex="1" parent="1">
          <mxGeometry x="560" y="228" width="60" height="30" as="geometry" />
        </mxCell>
        <mxCell id="lbgxpwjEB8n5JkEXpVQK-5" value="&lt;font style=&quot;vertical-align: inherit;&quot; class=&quot;notranslate fyzs-translate-target fyzs-translate-target-wrapper&quot;&gt;&lt;font style=&quot;vertical-align: inherit;&quot; class=&quot;notranslate fyzs-translate-target fyzs-translate-target-box&quot;&gt;&lt;font style=&quot;vertical-align: inherit;&quot; title=&quot;C&quot; class=&quot;notranslate fyzs-translate-target fyzs-translate-target-text&quot;&gt;CLOSE&lt;/font&gt;&lt;/font&gt;&lt;/font&gt;" style="rounded=0;whiteSpace=wrap;html=1;fontSize=16;fillColor=#f8cecc;strokeColor=#b85450;" vertex="1" parent="1">
          <mxGeometry x="166" y="280" width="120" height="42" as="geometry" />
        </mxCell>
        <mxCell id="lbgxpwjEB8n5JkEXpVQK-6" value="&lt;font style=&quot;vertical-align: inherit;&quot; class=&quot;notranslate fyzs-translate-target fyzs-translate-target-wrapper&quot;&gt;&lt;font style=&quot;vertical-align: inherit;&quot; class=&quot;notranslate fyzs-translate-target fyzs-translate-target-box&quot;&gt;&lt;font style=&quot;vertical-align: inherit;&quot; title=&quot;C&quot; class=&quot;notranslate fyzs-translate-target fyzs-translate-target-text&quot;&gt;CLOSE&lt;/font&gt;&lt;/font&gt;&lt;/font&gt;" style="rounded=0;whiteSpace=wrap;html=1;fontSize=16;fillColor=#f8cecc;strokeColor=#b85450;" vertex="1" parent="1">
          <mxGeometry x="530" y="280" width="120" height="42" as="geometry" />
        </mxCell>
        <mxCell id="lbgxpwjEB8n5JkEXpVQK-7" value="&lt;font style=&quot;vertical-align: inherit;&quot; class=&quot;notranslate fyzs-translate-target fyzs-translate-target-wrapper&quot;&gt;&lt;font style=&quot;vertical-align: inherit;&quot; class=&quot;notranslate fyzs-translate-target fyzs-translate-target-box&quot;&gt;&lt;font style=&quot;vertical-align: inherit;&quot; title=&quot;L&quot; class=&quot;notranslate fyzs-translate-target fyzs-translate-target-text&quot;&gt;LISTEN&lt;/font&gt;&lt;/font&gt;&lt;/font&gt;" style="rounded=0;whiteSpace=wrap;html=1;fontSize=16;fillColor=#fff2cc;strokeColor=#d6b656;" vertex="1" parent="1">
          <mxGeometry x="530" y="322" width="120" height="42" as="geometry" />
        </mxCell>
        <mxCell id="lbgxpwjEB8n5JkEXpVQK-9" value="&lt;font style=&quot;vertical-align: inherit;&quot; class=&quot;notranslate fyzs-translate-target fyzs-translate-target-wrapper&quot;&gt;&lt;font style=&quot;vertical-align: inherit;&quot; class=&quot;notranslate fyzs-translate-target fyzs-translate-target-box&quot;&gt;&lt;font style=&quot;vertical-align: inherit;&quot; title=&quot;S&quot; class=&quot;notranslate fyzs-translate-target fyzs-translate-target-text&quot;&gt;SYN_SEND&lt;/font&gt;&lt;/font&gt;&lt;/font&gt;&lt;div&gt;&lt;font style=&quot;vertical-align: inherit;&quot; class=&quot;notranslate fyzs-translate-target fyzs-translate-target-wrapper&quot;&gt;&lt;font style=&quot;vertical-align: inherit;&quot; class=&quot;notranslate fyzs-translate-target fyzs-translate-target-box&quot;&gt;&lt;font style=&quot;vertical-align: inherit;&quot; title=&quot;S&quot; class=&quot;notranslate fyzs-translate-target fyzs-translate-target-text&quot;&gt;同步发送状态&lt;/font&gt;&lt;/font&gt;&lt;/font&gt;&lt;/div&gt;" style="rounded=0;whiteSpace=wrap;html=1;fontSize=16;fillColor=#ffe6cc;strokeColor=#d79b00;" vertex="1" parent="1">
          <mxGeometry x="166" y="322" width="120" height="198" as="geometry" />
        </mxCell>
        <mxCell id="lbgxpwjEB8n5JkEXpVQK-10" value="ESTABLISHED" style="rounded=0;whiteSpace=wrap;html=1;fontSize=16;fillColor=light-dark(#e76d5c, #ededed);" vertex="1" parent="1">
          <mxGeometry x="166" y="520" width="120" height="80" as="geometry" />
        </mxCell>
        <mxCell id="lbgxpwjEB8n5JkEXpVQK-11" value="&lt;font style=&quot;vertical-align: inherit;&quot; class=&quot;notranslate fyzs-translate-target fyzs-translate-target-wrapper&quot;&gt;&lt;font style=&quot;vertical-align: inherit;&quot; class=&quot;notranslate fyzs-translate-target fyzs-translate-target-box&quot;&gt;&lt;font style=&quot;vertical-align: inherit;&quot; title=&quot;S&quot; class=&quot;notranslate fyzs-translate-target fyzs-translate-target-text&quot;&gt;SYN_DCVD&lt;/font&gt;&lt;/font&gt;&lt;/font&gt;&lt;div&gt;&lt;font style=&quot;vertical-align: inherit;&quot; class=&quot;notranslate fyzs-translate-target fyzs-translate-target-wrapper&quot;&gt;&lt;font style=&quot;vertical-align: inherit;&quot; class=&quot;notranslate fyzs-translate-target fyzs-translate-target-box&quot;&gt;&lt;font style=&quot;vertical-align: inherit;&quot; title=&quot;t&quot; class=&quot;notranslate fyzs-translate-target fyzs-translate-target-text&quot;&gt;同步收到&lt;/font&gt;&lt;/font&gt;&lt;/font&gt;&lt;/div&gt;" style="rounded=0;whiteSpace=wrap;html=1;fontSize=16;fillColor=#dae8fc;strokeColor=#6c8ebf;" vertex="1" parent="1">
          <mxGeometry x="530" y="364" width="120" height="196" as="geometry" />
        </mxCell>
        <mxCell id="lbgxpwjEB8n5JkEXpVQK-12" value="ESTABLISHED" style="rounded=0;whiteSpace=wrap;html=1;fontSize=16;fillColor=light-dark(#e76d5c, #ededed);" vertex="1" parent="1">
          <mxGeometry x="530" y="558" width="120" height="42" as="geometry" />
        </mxCell>
        <mxCell id="lbgxpwjEB8n5JkEXpVQK-13" value="" style="shape=image;verticalLabelPosition=bottom;labelBackgroundColor=default;verticalAlign=top;aspect=fixed;imageAspect=0;image=data:image/png,iVBORw0KGgoAAAANSUhEUgAAAHQAAABiCAIAAAAOd2D2AAAgAElEQVR4AeV9d1xUx/r+9gZbYCtNkCsgqKDSmz2RGIkmoomCXsvV2PONNRqvJSo2jFiJJSKiNKUpRQEpoqI0qdK79LLLssvS5P5w3zj3BJCo8f4+t7x/rOPZZc/Mc555520zi+v+E9LX19fb29vV1SUWi/Py8jw9PS0sLHg8HoFAwOFweDwepxQ8Hk8mkxkMBofD4fF4AoFAKBSKRCJNpWhoaKA2XHmvV/hz0RAZ9ksEAoGKigqJREJ9IxAIdDrdwMBg3bp1wcHBNTU1CoVCLBYrFIqud5CRwcON/Pbb3oX7yuVyhULR2toaHR29cuVKXV1dMpmM+o3D4QgEApVKVVVV5XA4XC6Xz+cjZLGgaGhoaGpqagwnw2KEvYj9HpFIBF81BOrfLmhoaAiFQnV19UEQUygUdXV1c3PzXbt2JScnSySSjo4OGN3ICL8NH7j+fuD29PR0d3d3dXXBHysUitzc3CtXrnzyySdqampYWMlksoqKCovFUldXB0CFSkHDxiKJBesD2tivGuE5wcc0NTVFIpFAIFBTU2MwGGQyGeYZDocjEolCoXDu3LlXr16trKzs6Ojo7OwEcN9G5I8JLnwXul92dvaOHTuMjY1pNBpClkgk0ul0NTU1wBQ7ciyyHwDiR/wT6BWfz+dwOHQ6nUwmgwbD4XBUKvUvf/nLnj170tPTZTJZT0/PCOT9yOB2dXX19fXJ5fKnT59u3bpVV1cXwYrH4wkEgoqKirq6ulAoBCy0tLQGzVw0eT8iWB/8VRoaGjwej8Vi0Wg0EomEFgkGg+Hq6pqcnKxQKGCyDgvxRwMX6YT29vYHDx6sWbNGS0sLPXACgUChUBgMBiAL0xPG/G8OrlAoFAgEXC6XyWRi1zoVFZU5c+bcunVLLBYjZTgI4o8ALijZnp4eWEljY2NXr16tqamJOIvD4SgUiqqqKhZZ4CxMQKQQoIGF/oNJ91H+EHVPKBTyeDxVVVUKhYLGpaqq6uTk5O/v39ra2tvbC/QaGVDsu++0oHV1dYFGF4vFsbGxbm5uyN4Ck4tEIjGZTDCzsMANwhT9F/uZj4LRn/wS9MgH4UsgEBgMxpQpU/z9/SUSSZ9SsFoCC+XQ9ruC29nZ2dLSEh8fv2DBAoFAgFZYPB5PpVLZbDaPx8Nar2BaITQHNf7dwAX+giGB8EVjpNPpM2fOvHXrlkQi+cc//gGmPeiHoYBir7wTuAqFoqOj49GjRxs2bGAymWjWgHegqqoKhgEgiEg0CFDsf//dwEV9huVhKL5UKtXJySk6Orq9vf0jgNvT09OrlM7Ozu7u7pSUlOXLl7PZbLSCUalUFovF4/E0NDS0tLRQ/1DjPwJN1FtowDqBljhVVVVkQnC53LVr12ZkZMhkMrSsYXk6tP1W5vb09Lx69aqnp0cmk2VlZW3ZskVDQwNZKqAKBAKB1hsZ1Mv/0P8CS4AWADGTySQSieBt6unpHThwoLa29s+Ci3RKaWnpwYMHjYyM4B5gZnO5XOQj/IfiOGy3seACxKAiYOxEInHSpEm+vr7IcxvKVuyVtzJXoVDIZLK2trYLFy6Ym5tTqVSgLZlMZrPZ4MtiVzBg8LA9/s+6KBKJOBwOjUZTUVGBVZrL5dLpdBg+lUqdNWtWWlqaVCpFYQAsoNj28OCC7SWVSmNjY52cnNBXUygUNpvN5/OxgQJNTc03umEYzfufhayGhoZAIGAymaAHYK3m8/ngXwC+FArlhx9+KC4u/nBw5XL5ixcvVqxYgThLoVBQxAA4CxPnvwZc5FCw2Wyww4hEIofDEQqFXC6XwWAg/21gsbl8+XJLSwus9li2YtvDMFehlNraWnd3dz09PaQN4DaDOItFdlib4T+OuRoaGlwuF0JReDyewWDATIUoGlp4Zs6c+ejRo46ODiyag9rDgCuXy8VicWBgoIWFBVLkqqqqcA9kYGFt1f8atYCogPQAiURSU1PT1NQUCoVqampUKhXMfDabvWfPnoqKCojsDIIV/jsMuF1dXenp6cuWLVNVVUVanMfjQTTrfwRcHo+HyEuj0QQCgUgkEgqFLBYLLF8CgTB58uSQkBCJRDIsst3d3cOAK5FITp06pa+vjzwxOp0uEomw9gDyF+FR//cxVyQSIfLi8XgWiwVBVD6fz2AwgHMsFmvz5s3l5eVA3qFhnd+BC7btgwcPZs+eTaPR0Ffw+XykBP5HmKupqQlGAihGKpXK5XKBQ1wuF2hHIBAMDQ0DAwM7OzuHIvs75kLIvampac+ePXp6erBckkgkWMeQMvrfAVdDQ4PP5wPJ8Hg8k8kER18oFDIYDMBXVVV16dKleXl5w2qG35gL+QWZTBYdHW1vbw82B6QXIXoAESOE7KBswn+fWgAyaWhocDgc4BmVSuXz+TBSgUCAMkO6uroXLlxobW0diu8/1UJXV1dFRcWuXbv4fD6K0oIVDbEi0LPoFXF5hAb2w9CtET787/kWl8tFKxibzUZRKlVVVSAvmUz+5JNPEhMTFQpFb28vyln8Ti20tbVFRETY29tTKBTwT2g0GsosIJ37XhAA04VCIerTe/35v8OH+Xw+OKh4PJ5Op/N4POiVuro6AIXD4fh8/sGDBxsaGlAm7HemWG9vb319/d69e2EpxOPxJBIJaIs0wHtRD0VAILYkEAg+7PF8FHyR1nqvIcCtIdSAHDYgLyhJRF4cDufg4JCUlCSXy4dhrkwmi42NnTVrFqgSSI9jk7jIE3vH0QK4fD5fXV1dTU2Ny+WifPC7fMMgOAaBMuy773hRW1sb+22DbMph+4aWNcj6CAQCyLOoq6sjn2LAvzhy5EhNTQ3g+zvmNjc3nzp1SldXF7QthUJhsVh8Pv+DC40AXBUVFfhCJpMJyuEP+YtV08OW4Qx7Ef3VoAbihPYQGRbHYS8KhUIgKXjDMAvBllBVVUVm1axZs5KTk1tbW1FA57cFLT8/39XVFbCA5wO0BZ3wh4gM7ZOWlpZQKMTaMe8ILjhCgjfC4/G4b0RdKWpqahwOh/1uwuFw1NTU1NXVuVwuTylYJ/4dxyUSiZCGpVKpwFzoJzjE4BBoa2ufO3euubkZaYbfwE1ISLC2tgaDGdEW1Ru8YyewEEPsDlQ+GInIjMN+bGgbao0AUzU1NTabraqqymAwaDQamUwmkUhEIpHwnkJ8I2QymUaj0el0FRUVNpsNuAPcwPGh/YEryDEjk8kALkwggUCANC+VSl22bBmEIsEdw3V1dVVXVx87dkwkEsETgBQOeGWAyIeBy+fzQYMjTwThO2rUKF1dXS0tLT5GoLIITGy8UggEwqDKPujhR3wlEokkEgnygWw2GwoGUb4VDRxABCOKxWIhq18oFCJDGIfDjR8//tatW1DBp1AocP39/aWlpatWrQKdAFkciIj/Seby+XwSiQQFTnw+HwJLfD4fpieHwwE+0mg0qlL+EEc8Hg9YkMlkKpVKo9EYDAaTyYS5r6YUFoul8kZYSgHuq6ioMBgMOp1OpVLJZDKRSAQrFT0nIpFIJpMpFAqdTmcymWpqalgFIhAIWCwWfJhOp2PD2VwuF4W8uVzu5s2bwSbr6urC9fT0JCUlTZs2DW4GXhmbzQa1/SeZSyAQIN4MCyOLxVJVVaVSqSjqjMY2bINIJEKoU0NDQ0dHx9DQ0M7O7rPPPlu4cOGqVas2bdq0Y8eOw4cPe3l5Xbly5fLlyxcuXDh+/Pgupezevdvd3f348eMnT548cODA7t27t2zZsnHjxuXLlzs7O0+dOtXExERbW5vD4aAVH/oAjxAqXyE5gApPkauGDWpjNQMej7e2tk5OTu7v7+/t7cXJZDJfX19jY2NY1qFKGfkOHwyuSCSColICgaCqqsrlctls9rCUIZFILBZLQ0PD2NjY1NTUwsLCysrK1tbWycnJxcVl27Ztp06d+vXXX319fW/duhUTE5OSkpKXl1deXl5bW1tfX9/W1iaXyzs6Otrb28VicXNzc51S6uvrGxsbm5ub29raWlpaGhsba2tra2pqysvLs7OzU1JSQkNDL168uGvXrgULFpiZmWlpaTGZTIAPoCASiRQKhclkQjaWy+XCmgRqF5EXNAPyhge+5+TJk1Kp9NWrVzipVIoULhR5oIpapCKR6nmbvh96XSgUIj0D/EXTEO7CZrMNDAysrKyWL19+5MiRS5cuRURExMXFPXnyJC0tLUMpmZmZxcXFdXV1LS0trUppa2sTi8XYyllYOt72CvZmzxuB/8KHOzo6mpubCwsLs7Ky7t275+Pjs3Pnzq+++mrcuHFqamqo80QiEVjMYrGQ1YXVGFBkpqKiAgNkMBirVq0qKCjo7OzENTY2rlmzBjw8qFTEcv6DmSsUCpEmwk55fX39efPm7dy588yZM1FRUampqRUVFa2trTKZDAJ3/f393d3d8jfS+XuBFBQqDHwD2m//dnd3KxQKuVwuk8k6lCKTyeRyeWdnp0JZht/d3Y08VPiqjo6Onp4eqVTa0dFRq5SEhAQvL6+VK1eiFR7WMcRNAoGAarcAH0hSIG/YzMwsNjb2dWyhoqLim2++gb8EhftRwEXxDhwORyKRBALBzJkzT5w4ERkZWV5e3tbWJpFIZDJZd3c3lJ4Am1DUGdLPgAiWlUA9wGhQCBU+JpVKGxsbGxoasMpBLBajFRxxGdXTdXd39/X1AdbgX4nF4vT09OnTp6PZhuUHHo8fCi6Xy1VRUQFqM5nM48ePNzU14Z4/f/7FF1+Atf9xwYU7MRiMmTNnXrhwITs7u7GxUSaTQS0mggzhhW2M8K5Coejs7IQvgSI2iUTS0tLS0NBQU1NTUVFRUlKSk5OTopTU1NSMjIz8/PyysrKKioqysjLQ1GKxGAo7gNSALLzCVEHgIhMFa2AMBRdqRyB+RiKRXFxcSktLcU+ePPn0009hChOJRBqN9rGYC+AaGBhcvXq1rq6uq6sL6s+wVEWeIhbZoW3sxyCoL5PJJBJJZWVlUVERLFCpqalpaWnPnj1LTk6OiYmJjo6OjIwMCQnx8/O7cOGCh4fHoUOHDh486O7ufu7cueDg4IqKCqQxRgAXqmO5XC5kf8HOGRZcNpsNhgcejzcyMkpISMA9ePBgypQpoBbAVPgo4PL5fAKBgMfjzc3N79+/L5fLX716BXTDTmcsakMxhSugItC7EomkoqLiyZMnUVFRnp6ehw8f3r1797Zt2zw8PHx9fYODgyMiIiIjI6Ojoy9evLh///5Vq1bNmTPHzs7O3NzcWilOTk7r16/38/MrKyuTy+UwSxC+wNzMzMwZM2bA2svhcGDFRttUsAsacinV1NRUVVXBohAIBD4+PrjY2FhHR0fgM5lMZjKZWCPhgxc0qI7G4/H29vYPHjwA9fph4MIa1dbW9vLly7y8vMjIyNOnT3/33XfOzs5WVlYTJ04cN26cmZnZ559//v333587dy4oKCgsLCw4OPj48eN//etfZ8yYYW5uPmHChHFKMTc3nz9//p49e0JDQ6urq1HV1yCInz9/PnPmTGTYALgQT8Bu+AJ8BAIBj8dTV1dH4NJotJ07d/4OXIgqIHCRk/cBphiASyAQ7O3t4+PjZTKZQqFAizui4bswF6rWSktLU1NTQ0NDDxw4sGDBAmtra0NDw3HjxhkbGxsZGZmYmDg4OCxdunSgkOXatWv+/v43btzYt2+fm5vb7NmzZyrl008/nTt37saNGz09PYOCgtLS0tra2gatmYi/ubm5s2fPBreNzWZjwRUoBdm5iLlYcEkk0jfffDMYXAgGQ+Duz4DL5XLBvHV0dExISABwEaao8V7gpqWlRUREeHp6bt68ecmSJfPmzZs5c+ann376mVLmzZv33XffnThxwtvb++bNm9euXXN3d9+5c+fGjRu//fbb9evXb926dc+ePRcuXAgLC3v69Gl1dTXSCWj9ROAWFBR89tlnZKW8O7jYbLylpeXvwIWQDdYj+GC1AOASCISpU6cmJibKlDIUyqFXEO6oAcxtbm4uLy9PS0u7e/fu5cuXT5w4sX///hVvZOXKld9+++2+fft++eWXmzdv+vv7+/n5Xb582cPDY+/evTt27Pjxxx+PHDly9uzZoKCguLi4vLy85ubmQToB2X8KhaKoqGj+/PkUCgWqOrHMhdwKdmUSCoV8Pp/L5bJYLGTtjhkzBpeQkDB16lSUnUdPCX0dSvNgQf/DNgJ3xowZSUlJYMwjSx4B9y7gdnV1yeVyqVT68uXL7OzsxMTEsLAwHx+fc+fO7dy5c926dStXrly9evWOHTvOnDnj7+8fpJRbSjl9+vSuXbsQuGfOnLl27VpYWNjDhw/r6uokEslQ8gKLKyoqlixZAnFOhAnoXIAVvaIANI/Hg8AeWMevfZC0tLQ5c+aAtfDnmYuYjsB1cnLKysqCJXgof2EkCOuhDUBfoVBIpdK6urq8vLzHjx/fvXv3+vXrZ8+e3b1799q1a5cuXerm5rZt2zYvL6/g4ODIyMiYmJiEhITIyMhz585t375906ZN69atW7FihZub2+LFi9esWfPDDz+cP38+MDAwPT29vb0dqQXUaGtrW79+PUzzPwQXLWvq6upoz8jrYrDKysr58+eDnfvnwYXnqaGhoa6uDhFtGxsbDw+Pa9euXb58OSIiIi8vb2hwYCimg650dXW1t7fX1dXl5uZGREScPXv20KFDW7ZsWbNmjZub25IlSxYuXPh///d/Z8+eDQkJefToUUZGRl5eXmJi4sWLF7dt27Z48eJZs2YZGhpCRNzMzGzWrFl/+9vfvLy8UlNTm5ubEaao0d3dvWPHDjU1NRKJ9F7gcjgcFGTAtXf1urm5QdL3z4MLsW+0oZZEIlEoFOXq+vpFS0tr8uTJS5cuPXnyZGJiItS3wngGoYn+C++2tLRkZ2f7+Phs377dxcXF3t5+3LhxJiYmEydONDc3nzp16meffbZ27drz58/HxsZmZma+ePGiWCnh4eF///vfly1b5uzsPHfuXBcXl6VLl27ZsuXnn3++e/duWVmZRCIZqnlB+Z4/f15LSwuSXpA6QKoAmQqgHiHwDQaZmpoaeE+vlW+euPfChQuwTedPggthRqh5H9YrBw+SwWBoaWnNnTv34sWLBQUF7e3tEFJAgGIbCoVCIpEUFxdfvXp1w4YNCxYs+OSTTywsLAwMDAwNDa2tra2srBwdHV1cXLZu3frrr78+fPgwPz+/tLS0rKysvr7+2bNn3t7ee/bs2bp16/bt23/88ceDBw+ePn3a398/ISGhrKystbV1WLXb29sbEBBgZGREIBCAvFhksW0+n89ms2HHMyxrsIC9fr1S1n3v3j2osqFQKMgbea8FDZLVQqGQyWTS6XR4dBDsAPeRqRQul4sWUxqNNmbMmM2bNz979gy0HhZT1FYoFG1tbUVFRZGRkT4+Pr6+vl5eXgcOHAAd+s033yxYsODrr79ev3794cOHg4OD09PTy8rKqpRSV1dXXl6empoaEhJy5cqVs2fPnjlz5vz581euXAkODn769GlxcXFra+uwzH316lVcXByqUIZyECym0IZUIYPBIBKJDAYDzpQAcF8P/0pZ99OnT0ePHg0HDnC5XKwlgBYo7MVBbdi7BYkQcHkhEgaqytDQ0NTU1Nzc3NLScsKECQYGBiKRiE6nQ5aMy+WuXr06OTl52BJtmJ4dHR11dXVVVVXFxcWZmZng9e7cuXP79u0rV67829/+BnZCeHj4s2fPSkpKANmqqqqmpqb6+vqampoXL16kpqYmJCTcv38/MTHx2bNnmZmZBQUFjY2NwyILuig/P3/OnDngu1KpVEggDMIXwIXhEAgEGo2GSv5fMyxP0peUlDR+/HgYLSrXAQT/EFxAFmWeIYZPo9G0tbXHjx9vZ2fn6OhorxQ7O7upU6fa2NhMmjTJwMBAIBDAE+bz+d99911OTs6wZhnCt729vaGhIScnJyYm5urVqydPnjxx4sTx48c9PT19fHyioqKys7MrKirq6uqampqam5tRcB1yE9XV1eXl5S9evMjNzc1XSn19PTjlKPYImMKrTCYbeE4rVqyAqPkI4EK9E6hB2KwL7dej6+jtj4mJsbe3h6GilfHdwRUIBPDogLDq6upjx461srKyt7efOnWqo6Oj3RsBlKdMmWJnZ2dqaqqlpQV/+Je//OXo0aOQ8UdJf9AMMFSFUlpaWkpKSjIzM5OTkx88eBAbG4uYmJ2dXVNT06iUpqYmsVgslUplMplUKhWLxS0tLbW1tSUlJfn5+cXFxaWlpeXl5VKpFOl6LKzQ7u7ubmpqcnd3h5A5mUyGfBpirkAggDYqJsPGfAEKXF9f39OnT+fOnUuj0QgEwruDq6Wlpa2tLRKJWCwWPBgKhSIUCseOHWtjY+OgFMRZgBdY7ODgMHXqVHt7ezMzM21tbQqFQqVSHRwc4uPjYXPMUArDgKVSaUNDQ2lpaW5ubqZS0tLScnJySkpKgLPNb6S9vR0cbshKiMXi6urqXKUUFxdXVlbW1tbCLlOk3LH4dnd39/f3d3R0hISEWFlZQaUEh8MBQF/bPW8EcjxoKxkW39erS19fX2Fh4Zo1ayBHxGQysSp1ZLWgpaWlrq6OIsRCodDU1NTOzg4wRa9viPvbdQcHB0dHxylTptja2k6YMAESf1wu9+9//3tZWRkizqBhQ2xMIpHU19eXlZUBvvn5+YWFhRUVFVVVVZWVlXV1dZCRBHDBZ5HJZGKxuKCgALJzOTk5ZWVldXV1KF6OhRU9176+vu7u7pycnJUrV0JSHTY6I8IiCvP5fBQMw4L72ono7+9vaGhwd3eHrb1UKhXFa1DjbVExNCPweLy6uvq4ceNsbW2Rkn0buHDdUSm2trb6+vpgYFhYWERERAwtgUcuf2dnJ+w0qqurKysry8vLy83NzcrKSk9PLygoqKqqqqmpaWpqam9v7+joQMhCWB1shujo6KdPn+bm5paUlNTW1g6NiiGgu7u7e3t729raLl269DpKgMPRaDTQDG9YK4AaDGwYF6pYYB5ra2u/Tq23trb6+PiYmJiAPYEq3bAUHtqGLRnwrOh0ur6+/lBYAcdBzEWgA75mZmYQnxxwwffv319WVoY4i9SuQingQyN8IQgZHx8fFRWVlJQEeeKmpibINg4CNzk52dvb28/P7969e0+fPs3KyiorK2toaMBuQUfIAn/hZJTU1FRIg0GNAI/HA8OWyWRi66wABwiIw0Lyulqhq6uro6MjKSlp9uzZUIyFlAtULL9t6x4yWkkkkoaGhoWFBVIICM1BDQQrajg6OlpZWY0ePRrs3zlz5qSlpaG5icBF5IWkGWje9PT0x48fh4eHX7169ebNm48ePSotLW1tbZVIJM3NzRUVFfX19WKxWCaTtbe35+TkeHl5eXh4AL4PHjzIzs4uLy9vbGwc1olA2qmpqen8+fO6urrgTYAlgDXk8UqBg2gcHByOHTs2f/78yZMnHzp06HUhXldX14sXL9atWwdmB41GgzIICPPAXBjKXBaLBd+rqqpqZGRkZ2fn4OBgb28/CFDsfxGm2Iadnd2ECRNgu62RkZGvry8c2IP4C+ME8qIITkFBwePHj+/cuXPlypUjR454eHgkJCTU1tY2NTXV1NQUFBRkZmY+f/68qqoKzIbm5ub79++fPn368uXLt27dioqKSklJKSgoqKmp6ejowHIW2x6IMHR2dsKuPOghmAF4PJ6m3HmtqhQ2m83lck1NTY8cOVJVVQX6/XWCEsbQ2Nj4888/6+joQBkh1IrBEoe2EA7CF5ZIIpEoEoksLS1BJ2ChHNrGYoptW1paamhokEgkdXX1gwcP1tTUIGSREapQFh5ABKempiYnJycpKcnf3//kyZM7duzw8vIqLS2F2oO8vLxHjx7Fx8ffu3cvKyurpaVFKpXK5fKSkpKgoKBffvnlxo0bd+/ejYmJAfKC/43FFLUh8y+TyXx8fCZOnAjKlE6nOzs7r1279scff9y7d+++ffuOHj166tSpkJCQoqIipI5eF4XAMBQKRVxc3LRp01DQAZKdqHR5UBW0UCiEiUwkEkePHg20HYrmoCtYQLFtGxsbHR0dCJFs3LixvLwcCy600YDb29urqqoyMjJiY2PPnz//ww8/bNu2LSQkpL6+vqCgIDo6OiIiIvyNZGZmxsXFhYSE5OXlVVZWxsTEXLly5dKlSwEBAffv309LSyspKQE/DT08dCNo9Pb29vf3v3jxYv369RCBoVAoR48ehdhFTU0NmCitra0wRbAFKL+BC5ph06ZNoBmgNBGVLoPXjGwG2HoMFhiDwTAxMRkE4tv+iwUU20bg0mi01atXl5aW/iG46enp9+/fP3LkyIYNG3bs2HH37t3ExMQtW7bMmDHD1dX15MmT3t7e4eHhPj4+rq6uX3755ZkzZ1JSUmJiYvz8/Ly8vK5evRodHZ2cnJyXl1dbWzvCsY1A3vb29l9//XXs2LEQe1q0aFF+fj4iKZQLwXqL1NfrKkc0jLa2tuvXr48ePRp0Ntj2wFwoXwXyikQisOyA4ywWy9zc/G1oDrqOBRTbBnChKsvNza2goAD1CjXQKieVSquqqgBcDw+PAwcOeHl5BQQEHDp0aPbs2RMnTrSyslq0aNG+ffuOHz++f//+Y8eOXb582c/PLzo6OjExMS4u7saNG9evXw8ODo6Li0tPT4eNDG9jLuzQ+8c//pGVlbVw4UIIfBsYGMTExECKBDBFr9jv+Q1cqCVIS0tbvnw57KcGkw3AhXpYUMRcZb0ilUoFcPl8vpWV1SAQ3/ZfLKDYNhbcgch3fn4+whQ1BoH77NmzqKioS5cuXbt2LSIiIiwszMPDYyCbvX//fnd397179x4+fPjs2bM3b95MT08HE7i2traysvL58+exsbGQCrp3796TJ0+qqqpGYC7UsvT394M3zOfz8Xj8QKXeiRMn2trahhbsYLXKP5nb29vb3Nzs4+NjamoKmhs2TAxOzMAAABPASURBVEHdJ8TM4ExJmBoArlAotLGxeRuab7uORdbe3h4Lrqur64sXLxCmqIEFt7Ky8tGjR7dv34bZnZmZmZGR8ejRoydPnmRlZWVnZz969CgmJiYuLm6ALpWVlciY7ezsrK+vz8zMjIiIuHPnzv37958+ffqHzIVCIYVCce/ePTMzMyjAdnV1LS4uRqEf1E9s45/gQlFBUVHR7t27tbS0kHLQ09PT1dUFuFFEERiNw+E+IrgQsluxYkVxcTG2i9DGgltWVpaUlBQUFBQQEJCSkgLErKqqqqurq62tLS8vf/78eXx8POR7qqurEbhgWtXU1Dx9+jQqKur+/fvPnj17+fLlCMzF9iQzMxPlG62trRMSErAbo7CfhPZv4MK+yr6+vq6urpSUlPnz56MCVXt7e2dnZw0NDaAqcp8B/Y8ILhiPa9asGeqkYUNl7e3tpaWl8fHxgYGBUVFReXl5jW8Ewr6lpaUZGRnR0dG3bt2Ki4vLz89vb29HI+/t7VUoFOXl5VFRUXfu3Hny5Mm7gztgF69atQpsBj09PV9f32G3/KJ7/VPnAvl7enokEklUVJSzs/OA1UkkEl1dXcPCwg4ePAih2FGjRo0ePZrNZgOX3wtcW1tb8OKmTp1qa2traWk5bdq06dOnT5w4UV1dHY/H8/n8I0eO1NXVof6hBmIuZH0ePHgQEBAQHR1dUFDQ0NDQ3NxcW1tbWFiYkZGRnJwcGRkJq1ZERERxcXFLSwv6c3BDysrKoqOjAwMDHz58+PLlSwiZw72wShP9Fbw1UEq8adMm8CYGyu4GbJVhw6Soz8OA29PTIxaLo6OjN27c6OTkdPr0aQiI5Ofnp6enZ2RkREZGurq6wgN8L3ABWTs7u0mTJo0aNUpDQ2PChAmWlpZ6enoQu7G1tY2IiJBKpah/qIHGKRaLCwsLY2Nj/fz84uLiCgsLq6urKyoqBhIHqampDx8+jIuLCw4O9vX19ff3v3PnzvPnzxsaGqDqFEJrcrm8uro6Li4uMDAwKSnpw8BVUVHZtm1bdXU19BB1D3W4e9iTQrq6ujo7O9va2srKyrKysmpqasC17+7uBju5pqYGRZHfF1xHR0dbW1tDQ0MajUYkEkeNGmVoaAgZUyqV+jY7DKsWWltb8/LyoqOjr1+//vjx46KiopKSktTU1Li4uPv370dHR4eEhJw9e9ZdKWfOnAkODs7JyWlqaoJJWVlZ+fLly7q6uoSEhKCgoPj4eDgEHoHyjsyF3hYWFn4IuGCvgUkM94MRglFx/vx5HR0dHA4nEone3VqwtbV1cHCws7MzMDAABw92JMGGAn19/WvXronFYlgA0Gjhvqg/LS0tOTk5t2/f9vb2fvz48fPnzyMiIi4r5cqVK1evXj137tyxY8cOHTp07tw5b2/viIiI3NxciUQCtC0vL09XysOHD0NDQx8/fozqFuBGI4BbWlq6evVqCO8iKgzLWej8P60F7JciN2Noo6+vr62t7ebNmyYmJng8nsvlvrsTYWtrC0aYkZERWON0pUDuev369fn5+UP7Ch0DcDs7O5uamrKzswMCAn799df4+Hh/f38PD48rV67cvXs3Li4uOjo6NDTU39//+vXrgYGB4eHhjx8/LikpgWN++vv7Ozs7X7x4ER0dfU8pOTk5oIWww8e2sc+4oKBgyZIlEFSh0Wh//etfCwsLUa4I+8kPBLenp6ejo+Phw4efffYZWHwQEnubSYu9jsA1MTEBawRMZiaT6ezs/OjRI7RjBNvRoeBmZWX5+/tfvHjx2rVrx44dCw0NzcvLg1hUdHR0UFDQ6dOnf/rpp/Xr13///fcHDhwICAiIi4uDEpCenh65XF5cXBwbG5ucnFxZWTlCyBH7pBUKRVpampOTE/j9HwjuULaiK2icRUVFcFgegUAYNWrUO2oGABdijBwOB4xlBoPh4OAAkUZIrsBdEL7oprAYNDc3Z2VlBQQEXLhw4eeff7527Vpubm5FRUVOTk5YWNi5c+f27Nmzfv36pUuXurq6rlixYvPmzUePHr1+/ToEfNva2oAfxcXFhYWFI2fX4dYQNZfJZA8ePLCxsQGTlE6nr127trS0FPsAUJ8HMxe9Ad84wqtCoWhsbDxx4oSGhgb4ghMmTAAzC8vTEdqTJ0/W1tYmKWUgE3Hu3DnYoYDVesP2B37zIzc3NzQ0FFRqampqjVLy8/NjYmKuX79+5syZo0ePQjDQ3d0dcu9xcXEZGRm5ubmVlZVisRh2BEIoEhsNGDpqhfJwFblc3tbW5unpOWrUKDDwBQLBqVOnkCmGeott/FPnoqtDbzD0ikwmu3fv3pQpUyC5pKenB7n0EQDFvmVlZWVsbAz1EwYGBseOHauqqkLpBrjd2/ojlUorKioePnx4/fr1+Ph4yDhUVVXl5+enpaUlJSUlJyeDzRAQEBASEgI+7oC6LC4uLioqAnBhS9DIsKJRQ0/Ky8sXLlwIgRccDjdr1qy4uLhhrUbU8w8Et6urq6ioaM2aNbClk8vlvhd5wR/R0dGBkJCjo6Ofnx/aWzMsuAgIuVze3NxcWloKdlhtbW1jYyPE/18oBXLDUNuQnJyckZFRXV1dr5S6urqGhgapVDryT2sgWEERwXyKiYkxMjIC2vJ4vN27d1dVVWE3zyBMUWMYcNF7Ize6urpCQkIsLS0huaSpqWlpaYml5whtGxsbS0tLU1NTSDmTyWRTU1Nvb2840X4QuMgUg5wu7K9sbW1NS0srLCxsbm6GfWi1tbUNDQ1NTU0vX74sLy8vwUhbW5vsjcCP7mDhG7kNtSMpKSlOTk4onmVlZZWQkNDb2wuLxNuA+nBwe3t7q6urDxw4MGbMGIhPampqTpw48V2Ur61SrK2tjY2N4QA0Eok0adKkX375pa6uDvksqNNw5dWrVxKJ5MmTJ8ePH//666+nTJkyffr0RYsW7d27Nzw8HELsnZ2dYrG4qamp7o3U19fDbs038L7esIrmwcjIdnZ2ymSyhw8ffvPNN+rq6hAaHHB8/Pz8WlpaXr169a8CV6FQ9PX15ebmbtiwQSgUIv6amZm9u/FgYWGhq6sLKQ8cDmdmZnbmzJni4mJs3SOMH/K+YWFhixYt0tLSgioYHA5HJpNZLJa1tfWuXbsSExNfvnwJ/oJUKm1XCniVoHOg8gFlYrAL/VCUocByoArtyy+/5HA4QFuRSDSwV6CxsRG2yA71dxAhhnd/sW+P0AbjWS6XD+zfcHFxgXAGlUrV19e3sbEZIQ0MAVwLpZgpRVdXFxYKIpFoaGi4bdu2lJQUMIDA8gXmBgQETJs2De0PR8f24ZWHXAgEAicnp7Nnz8JBKEA6YCvS5ihfgIob0VZriFvBTrn29napVJqcnHz06FG4IyDL4XCWL1+empoKEfSRFe6fAhdwVygUzc3Nvr6+1tbWcC4Ij8cbP378sMoBELe2th47diwcpwxJaR6PB6cxgOXL4/EWL14cExMDG4V7e3tlMtnjx49nzZqFTgBls9l6enqjRo0SKY8Yh8FTqVQjI6N9+/aBp4fqbhC4yEjAqgXkuXR2dvb19fX391dVVbm7uzs5OcGxglBBoKKi4urqmpiYOGy167As/HCdC18HnGpsbDx//rxIJIJ9EGpqaiYmJkPxdXR0NDMz09HRQRihoDsKE0ODQqFMmjTp4MGD2dnZ3d3dA8dSbNiwAZx6CoWio6NjZWU1ZcoUBwcHa2trc3Pz0aNHo7oCmLmQacfCitQL+ETwXyhb6u/vl0gkRUVFDx8+/Omnn2bNmjWoPxwO5/PPP3/8+HGH8ggBrD4ZFla4+OHgokkhkUgSEhLc3NzU1NSAQUQikcvlQlYYWyliYWGho6MDh/5COlJFRYVCobztVBYqlWpra7t79+4DBw5MmjQJfhhOS0vL0dFx+vTpULMPwSBra2sjIyO0H0FLS8vd3b2pqQn0APAUMEWaAUy6ioqK+Pj4GzdubNq0aebMmfr6+rCXDPxyVBC+YcOGZ8+eoaQOUtAjIPun1AKYinK5/MmTJ8uWLYNdLIAUlKXweLwJEyZALelAoNbCwgJrJ9rb27u6um7atGnJkiWzZ88eN24cbDIC7iPikEgkOp3O4XBgM5eqqur48eNRkSSEgeD5WVpaQvQSHtXo0aNR8Q5KggGg+fn5jx49unXr1k8//bRgwYKJEycKBAIwYOG+kBMhk8lcLtfBweHo0aMFBQXNzc3Y3XSI+CPg++HMBSuvsLDw+++/FwqFECGDxQri6EQikcfjQemjjY2NiYkJm83G4/FCoXDz5s337t2D0kSIxoaFhW3YsGHixIkqKipAf3COIWsHI8fj8VpaWlD8i10wAWI7OzvYiIIm0IwZM/z8/FJTU1NSUhISEkJDQ729vQ8cOPD1119DgRqXy33bkVB0Ot3MzOzHH39MTEysra3t7e0FSwPMOKRYRkD2TzG3u7u7vb19wHMfPXo0iUTi8XhfffXV1atXvby8FixYAGkbOLFkwoQJsA8a/LEvvvgiOTm5paUFou+gvyQSSVNTU0BAwOeffw6/2ALnqmlqaqIDlBgMxvjx4x0cHMBMRnV/AK69vT3MDwMDA9APdDrd2Nh48uTJ48aNMzQ01NHRgY0b2F88Q1MEGlDKyOfzly1bFhoaWlNTg+qxYTFEWgXw/VeB++rVq7S0tLlz51KUP+C3YMGCGzdu3L59OyIiwtvbe/HixcBfHA7HZDJ1dXUhI6emprZ///7y8nIwkuAoIKQNGxoaAgMDp06dSiKRyGSySCSCnVA2Njbm5uZwapOdnZ2NUgZ5gMBlGxsbMzOzoenUQSCi6Y/VBpDM3rhxY1xc3MuXL6EuDfK7yMzAFir84bL24Wqhqanp1KlTenp64Lzu3bs3JCQkLCzszp07YWFhly9fRmEO8N8gDGpsbOzr69vc3DxoHQd8ZTLZy5cvjx49CoU/FAoFStWnTZuGXRiBuUOtEbhuYWGhr6+PIizDwgouDxy7xOfzR40axeFw4FTbpUuXPn/+HKwINP3BKEIQo+v/KuaWl5evWrWKSqVyOBwXFxdfX987d+6Eh4ffUUpYWNgvv/zy1VdfgQYEghAIhIG1KD4+XiqVAgWwMUYYgFwuT0tL+/LLL6lUKpFI1NfXnzRpkqNSEL4I3KENOzs7a2trExMTgUAwLKxwkcViTZkyZd68ed9+++1PP/10/Pjx5cuX6+vrw1lH8AMQ4OkhwwAaAOu/ClwABRwzmL9jxozZvn377du3Adzw8PAQpYSFhV28eNHFxUUkEqE1ytnZOT09Hds5bO/hen19/a5duyDepqmpOWnSJLTlClTBUEzRFTs7O1tbW9AMCFzQ9VgNMHBiPmQooNv37t27fv36ihUrRCIRHo8f0NF+fn719fUw8Yf2EPV/ZM3w3moBNHpLS4unp6empiaJRJo2bdqZM2dCQ0Pf1G2Gh72R8PDwS5cuubm5gTlBIBBcXFxgyxnYnoOYC8NobGw8dOgQVAdDsA0tWe8IrqmpKY/HQ+DC8YxgzMFFSIyHhoaGhIQEBweHhYVFRkZ6eXlNmzYNjgFwcnJ68uQJnG6C7STA+q8CF35+bmD74bp16wYqVWk02vLly/39/RGy4eGvwQ19I3fv3r169aqzszNsxXJzcyssLMRyYWi7rKxs69atcO4vFly0giGeDmqA/WBra2tsbIwcNgjns1gsLLg4HO6TTz65ePFiUFDQrVu3AN/w8PDdu3cP/KIc/OrGsWPH6uvrEb5YT+RfBe6rV6+kUmlKSsoXX3wBuyGg9nhYcMPDw2/fvn306FFbW1s40mQgu4X2Qw2CFXovk8kGymZdXFzgnFFtbW0rKyukbYdlLqgClP20sbEZM2YMZJeBp/BLY9grOBxu3LhxHh4egYGBt2/fDlZKWFiYt7e3s7Mzg8EgEAjz5s1LT0+Xy+UQzcFy9l8FLtTjDOzxMDAwwOPxEydOPH78eFhY2FBwwSy7ePGik5MTm80mkUgmJiZBQUFisRilo5HO6urqqqurKy4uDg8PX7p0KWxeZTKZEKPAugwISltbW4htgqFmYWEB3qCpqSlkP+H4HzAM2EpBigKHww3UXezfvx8mWEhICFJrx44dMzY2xuPxAz8S4enp2djYCCWK/z/A7evrq6+vR2drzpw508vLayi40N0bN25899132traRCJRS0tr3759ZWVlQARkxIB9U1FRcfbs2cWLFwM0cDq4jo4ObBJCCmFY5lpaWmppaenq6lpYWFhbW+vp6UHFCZ/PHzNmDKgXOHgYu6YxmcwtW7bcvn0b8IVl4u7du/7+/l9//TUcpOvm5padnY1M3UH4wsxDAxnaeO8Fra+vbyBTu337dthM/eWXX/r4+GBpCzoXwD18+LC9vT2ZTKbT6YsWLUpJSZHL5eDpQ1fgcKD29vaBxzNp0iSI6QC/tLW1Bw58G2rMAnMRypCOU1VVVVNTMzY2Hjt2LDrn2srKau7cuRBZ53A44DQi8lKp1KVLlwYFBUGHw8LCAgMDL1y44OnpuXDhQqFQSCKRBizABw8eQEEJMnURxO8BLtKAQ58A9kpvb29+fv6KFSuYTCaLxfr2228DAgKGghsREeHr67tgwQIKhUIgECZNmhQaGgq9ROE0uGNvb69EIjlx4gQMHsI0o0ePNjc3f1tGA61jALSFhQUk+SkUCpxWicfjB2qKDx48+MMPP8BpBxA4xjKXRCJNnz791KlTnp6ecACJra0t/CiXmpoaFAaOHTvWz88P6kQ/ANz/B4+zyj3/rKFDAAAAAElFTkSuQmCC;fontSize=16;" vertex="1" parent="1">
          <mxGeometry x="162" y="124" width="116" height="98" as="geometry" />
        </mxCell>
        <mxCell id="lbgxpwjEB8n5JkEXpVQK-15" value="" style="shape=image;verticalLabelPosition=bottom;labelBackgroundColor=default;verticalAlign=top;aspect=fixed;imageAspect=0;image=data:image/png,iVBORw0KGgoAAAANSUhEUgAAAGkAAABiCAIAAADcJ2quAAAgAElEQVR4AcW9B1hU1/b/feZMZZjCFDoooojSm1IGFZFiiZqYmESjRm9iicZYokksUVAsURFLLBgRxV5QsdBUULD3CoogSK9TT58B3/8+ByeYqLka7+89z3rG4ygz8JnvXnvttdbeQOQHuiiKMhqNGIYbECz7TN6IL0dLFTYQzIEgFsRiQ2weLLAUSOUiubWlTAlMbi1S2IiVthJrO7HS9rUmUdpKFbZWChu5wlohVyoUCplMZmVlJRaLBQIBl75YLBabzZZIJO7uPYOCQ+2cXCAWLJYpY4cMn/dr/LxF8V9/M7m3qq+lxIrF5irtHMdOmHi+8DJJmijK+C9/dOhffn3HLzcajWq1JjMzZ+SXX0ms5BDEYsFcmGfBsRDxRFILKwWDjGEnesnutdSYJzuyk8vbwYlEIj6fz+VyWfQlk8lUKtWsWbMPH07POJn57ZTvBSIrHk/g3zt05pxflq5MXLY66aeFcVGDh8ttHWGYa23vPPWH2UWPS/QGhKKojt//u97/W3YEQZjfUq/XHzt2fOiwj2VKW1puHI5AJLRSAAS0uEQKG2By63ZT2IqVdoyJ5LbtprAVtT9v+xd2VlYyiUQiEAjYbDYMw1wu19HRceLEiZmZmUVFxS0t2haN4eCR415+QSwW29bBaew3kxNWJf22btPqDVunz10YHjXEytoBgvmu7l4bNidX19ZRRuO/wfev2BEvLxzHMQzLzMz85JNPpFI5i8WFWByYL7SQyqXWdlY29lJrO/PYfEnQViS3o81eJLd/eW8nVti3m9LuFXYyhVQqtbCw4HA4EH0plcpJkyZdu3atqqq6ubkFQXAEI+89evz1N5MhiC0UiaMGDV2yMnFl0ubfNiQvWb1xyuz5/qoBsEDKE1gMGDj4VGYWhmH/v7FjFKfT6QwGQ0lJyahRo5QKaxaLDUEAnNBKIbW2k9k6SKztGNfGjMRX2TmI5K+YWOH40uzN7GQypVRqJRQKYRhmwFlYWAwbNiw3N5cgiKamJgRBcYJCcKq6vnnV2g0KG3uYw+3pG/jj/MUrkjavWJ+8bF3y4tWbxk6Z5dzdF2KxrO2dfpm/4Hllpclkem98/0p3JEma6KuiomLRokUODg4cDo/F4nB4QksanJWNPSO3f8lOIpULLSzNiuPxeJGRkQcPHmxoaKAoCkEQHMdxgkJxyoAbD6Qf7+LWA4Ige2eXyTN/Xpa0Zdm65KXrti9dnzJ/xcahX06Q23fm8vjhfSNOnT5NkqTRCCaNjs7H7IXefvOv2DFDVqPR7Ny5083NTSAQwODiCsUyqRIojhHd62cDhR09VF8RnUju8FJ0jmIF0J1EYSuVWwstxTweH4bZjOj8/f3Xr19fUVGBYRhBEAAcTuA4ieIUQprOnr/Yp380i82V2zh8PGp8wtotCeu2LVmXQtv22YtWxgwbaSGRy5U230+fXlJSQtHX/zU75mMpLi4eM2YMl8uF6JmVxxOIrORW9Gg1646JRV5xeWBysDMP2A7IXhmzYrmNSKrgC4QcDphYIQhSKpXz589/+PChXq8HzP68KIw0YVTrk7KKr7+ZzBUILcSyiEEfL03cTLPbHk/ji0/cMm3Owi7dPbg8vrePT1paWmNjI0VR/3fsmG+YJEm9Xn/w4MEuXbowEYNAIBCJpVKZUkrPrRJ6iuj4+KfL++/YiWRKodiKyxPQbhSSSCQTJky4d++eRqN5FRxBEBRpbKXaXtQ1axYtWW4ptuIJpcH9YpcmbklYv33JupT4dTuWrEtZuu6PX1esD48caGEpFlqKx//nm4ePiozG9/F67zlmme+boqjy8vLZs2cLBAIWi8Xj8UUisVxhLZVbi2RKs9ZodvYS63bfJ1Yy4cgrY/ZV3TmIFQ5iep61tFIILCVsDhdomsXq06fP2bNnCYJAUfRPwbXfUZSpre3Fiya1ftXaDVZyG45A7BcaGb96c8L6lCXrdsSvS41flwpuEpNHjp2ktO8MsdjdenoeOZ7RolED6b3dvf3tX9+THeNoEAQpKCiIiIiAYZjFYgmFQqnUSiZXSukFg0hp+9LsROY4TtERnL15zNI3f0YqIrmtWGkjkit4lpYsEJSwYBju0qXLmjVrqqur29raGO/+Kj6SgdfSotuwcaudQyeYJ/IM7LNg2fqE9anxSalx63bG07YkKeW7OXHdfUJgrgDiCv7z3dSHT4oIE4lT5Dvhe392FEWp1erU1FRXV1fa07FEIrHMSt6RnaXSljY7kdJeTJsITBHmsO4vE4WZnS0dxygFUgnMA24UgiCpVDp27Njr168bDIbW1lYmsHgTu42/Jzs4dYF54h5+Yb/Er13Wzm5X3Lq0+HVpS9bt/GXphsihoyzFCgiC/UPDjmVm6AkE+z9j19raWlNTEx8fL5fLIQiCYdjKykohV4Ax+1J3/4adUCbnWAggGMwPMAz7+vru2rWrpaWFJElzRPYXdiRpbGtra2nR/f77NudO3VhcUTev3j/HJSYkpcatTY1blxa3bnf8ut1L16UtTUr9atIchYMrxOLKHB1WJK2qaa7HjP8nusNxnKKoR48ejR071sLCAoIgDoejUCiUSmu58p3ZvXR2DsyKAizOFNZ8sYTFfhkJCy2mTZv2+PFjMCP8bRH6kiCI1drZbdrm3NkN4lh29ez1J7ukXYuT0uLX7V6StGtJUur3Py/r6h3Kgnk8ocXXk//zqPQJ3mok6Bf/L+fcdx6zzDeK47herz99+nRISAibDcIuoVCoBJe1Qmnzrrr7kx0zruW2FlYKtgB8JMzl4+Nz4MABjUbz2p/q7ezmLl6zNGnH4sQdi5N2Lk5Ki0tKi1+7a2lS6i9LN4RFfcLmCNk8fuTgmAtXL2ImEgfK62h/myA6PPGe7AiC0Gg027Ztc3FxgSCIzWZLpVJra2ulUvkeY/bv7PgSGcTlMeD4FoJvvv22rKyMJEkcxzt88+23f2e3adMfZt29ZJfCsKN1l7ZsfdrStTuGjPyGy7Nkweye/n5HThzTolqcREkSe2k4zfHvb9j+zDuzY76OoqiqqqrZs2eLRCIIggQCgZndv9GdROkgVtoLrazZFmLAjsWCWJBDJ+d9+/er1erXiq7DhEsSBNXW1qZR6zdtfhu7+HW7E9bvjk/c8dm474Via4gFd3br9seuHS26FpxEKCNGUigwAPFtE+97siNJ8tatW4MGDWJi/Q/DTukosXYQye0EUgVbIII4XAhm8YXCMV9/XV1Tw0RFZlIdxWDWHUFQra2A3eY3sDNPF0vWp8Wv3TF5dpyTmzcEwdZ2dstWrWjWNJFGlKQQgkBIEvlfscNxPCcnJzAwkBlWH5CdpcyWa2nF4llALBiCWa7d3TZu2Yy9XHt1RGa+78jOZKLZbUn5y5iNo/0dw46ebdPi1qb+snSjX2gkBPOkMquZP84sK39CkAZghJ4gDSQYv/8D3WEYtn//fsbZfbAxS+tOIFWyLSQQzIMgFs9CED1k0LVbN9/2E9ApEBofieOkkWrVagybt/6N3drUxUk7/2SXlBa3dufi1X/0GzSCxRdZiizHfj3m9p1rOKHDcS1JGYD9j9g1NzfPmTNHKBR+cN3xxHKIJ4QgsJawtrdbsnKFWq/7L9nRAYyppUV3OvOMt28ASBw4un41cRa9rtgZlwRi47h1u4ElpcUl7oxPTIka9iUskPAFguEjhl+7XkgQOoLU/2/ZPXz40OzsPpTuJEB3jvx2diDu8fDx3n/k8DuxI0kTghD3Hzz+9IuxAqEUFkh79/to2k8J8Wt3mNnFr9sdtzYtfu3OJYkpsR9/xbG04vH5Q4YOuXT5PGYWHYV8eN0xzuXq1au+vr6M6CAIsrCwsLKyYmKUd51nxQpHidJJonSSWjtZ2dDsOBYQxObw+bFDP7p47eo/LjM7+juSNJFka3OLfuOW7W49vGGYLVF2HvblxPnLNy1JSo1P2rkkKW1J0u4la3ctWbtz6dodQz8fL5AouDxeVEz0ubxcFNP9D+dZgiAwDDty5Ei3bt3M7IRCYQd21lYKa4nSWtxuNmIFSGHSeZT2VS29tnWQKB0kSkexwkFiDRRnZeMos3Xki2UQmw9BsFSumD7nx5KKZ7iRJCicJP9irx3HFEkaSdKEYuTV67e/+GqChaUVBFu4+4Z9M31+/OptS9akLElMXZK4cykAB9h9NmayUKpkszm9g4MzThxHEAMJ8inm93rtu7TPUu8co+A4bjAYUlJSnJ2dGXYsFsvS0lImk73UndJKoZSCVa3ZbKQKWzFdAAO5gHZjVv4grSJW2kusHaxsQJ6ZJ5KCqi4LtnZyXLJyRU1jA0YRBPUy5mIiLxB8vTZwNdLsjARhrK6p37w1xScghMXiW8odIwd//tOvqxNWb1+WmLosMTUhcWfC2p0Ja3eMnvC9yMoahmEfH9+DBw8hCGKevv/x5p3ZYRim1+vXrl2rUCjM7EQi0VvYSeTWYrmN0EohtFJaSNuNL1HwJQquSMYVWXFFUo5QwhVJuSIxi8cHWRkYdu3ZY3vaLg1iMODY69i9NnBtZ0cSRhwjn5SWz/lloURhz4J5dp16fj7mu4VL1q9ITFm+dufSNTuWrklNWJPy1X+mS2S2MAx7e4Nln8Fg+Edk5v/wnuxWrlwpFos7jlmpVCqXy2X0JZHJxDK52URWCqFUzhczmKy4lrQJpWyBmMUVQhwBxOZBLA4EwaCqS18wj+sfEnz01Ek9gRsw5J3ZkUacoPQInptfGD1oOIcr5PIte/qovv1uXtzyzQmrtyfQ7JauSRnzzQ8SuR0Mw15eXvv27fu/YPfbb79ZWlqa2TFpIg59sTkcmMNhcbgdjMfi8FlcAYtrAXEsgDsDpNi0wQAZCwZ9F6z2rAkEQdZ2tt/NnHH/cbGBJAw4+h7sCLpsVt+s2bp9l7unPwvm8ywUfaNGLIhfn7B6+5LVKfGrU5as/mPcpJlShR2LBXt4eO7evVuv17+ced7m6RjpvY/uDAbDzp07O3Xq1JHdK/dgHUoTgWEIZtNcOIAXiwtBXBC7wTw2X8izEPGFYoGl2MJSLJLKrO3sXbp26+nl7ePn9/2sWdnnzjaoWwwEjhAYQdILTLOze+Ni8+WYJY0EacQIyoBTD4qffjf9R7mNAwRznV29vxo/Y8lvyfGrtsWt2ha/Knn85JlSpT2LBbv39EhN26XT6Rh25oH5lpt3ZsfMFSUlJePGjZPL5eZiM5M6ZrPZbA5HKlfIlNYvzUamtJVZ23V196TNK7TvgMiBQ4d88vlno78eM37S2AkTx06YOOunectWrUlJ252eceJkdnbR0xK1Qa/HUT2OGHAEJzqmN5g8x2vnCmaeBQQJ0oiD1alRY8Ayss6o+sdCMJfDFQeFxcyLS4xftSV+9Zb41ZsmTJkptbaHYNjNw2NH2i6NTocTBCi+vX05RhN9Z3bmOsvNmzeHDx8OQRBTaZ41a9bChQuXLl26evWa5G1//LF9e8qOHTt27tqVtnvP3n179h08knHyRFZO5pn8KzfuFJVWVNU3M1bT0FLT0FzfotEYUD1OgMUkjhkIzECgetygx/UIgeAEMzN0zKy9aUxRJNluOGVEKZOeoMprGxYkrLBxcIIgSGLj9OlX3/y6PGnpmo0JiRv/M22Gla0DxGL19PLetmOHFjFoEQNpMuEU9Y9x5fuwIwjixYsXRUVFX3zxBZvNdnV13bJlS0VFRWNjo0ajYar0Zq8B6s4YgeGkASMMOGkgjHqM0mGkHqM6GLMEB6twA4HrcYw21EAYDARgR7x1Tf6mYYVTJAKWV8ZmA5aemRXSPwrmcCGuwD+sz48L4tZsSl6xbuPXk6fK7RxYMCyztu4XNWDlmtV3Hz3UYShhMhJGinhrn9Q7s2OyQK2trQ8fPhw5ciSHw/H29j569GjHH8AMjn6SoiiT0dhGGE0oaTTggJ2BMCKkCSVbUbIVIUwIYTQA30QagO7M7BCanQElUZx4Tcqz4zu+9h6nwGreQFI6kioqr5jz6yKZtQ2Qnq1t/8FDvp3+w8hxX/fwD+AK6UkPhtl8npOry8Tvply5eUODGAiTkQR9Um/k9z7sSJLEMOzGjRtRUVEcDsfX1/fEiRPmSoIZXIdUpZGkTITRhFEmhDABfB0NCJDU44QeZx5xPYHrCUxPoAZCbyAAu/fWHUqBlIiepOr1+j3p6T38/UGVl8uVWFt37tnT1qWLQCazcXS0c3KW29jAHA4Ew04unX+aP+/h42LCaCTf2i/wnuwQBCksLGSKFX5+fjk5OR3LV4wKCHp1Q7soI06aEJJCSCA3Aw4MQCSMDEoDTtFps/bkmYHA6cGLGQgEIRGUxGjXQ9EvCB5pj/Zaqb3yJNAdRSEUYKclyUu373w6ZgybLwDpaBjmWlq6enqOmzR51YYNG5K3LVy6NDI2xkIs4vC4Pb29kjZuqGmoJ41vFB1Jku/PLjc3NyAggMvlqlSqy5cvm2umNEQjRQsNpyiMolDCiAJ2JgOwtj+NAE++NCMDl86cASdlIGn3RxIo/SIYZWQMp8Ac+t/ge8nOiBiNBqPxeX3DsjWJIoWSCae6uLktWr784dPSZgOiI4ja5uasc2fHTBjPEfC5PF6wKiw947gBQ/8nY/bUqVPe3t58Pj8yMvL27dsmkwm4QmAUHR/QIxQIDWhNT5h0hEmLGzWYSYOZ1IhRS7TqiFYD2dqBnVFPGPWkSQceW/Vkq44w6alWhGpF282EUuBlcdJEgCjkr6LoOA3jJIkB3ZEIkJ4RoYxaDDuemRkQEsLmcv2DQ5I2bX5SXqFBUQ2GaRBUh2NqxHD2wvlhn34iFIulMqvx337zpKSEGU8d/M+f0n5P3bW2tu7evdvZ2ZnL5X788cdPnjxhXhInKYwyIgSFEACEDqd0hFGLG+vVyMPS59fuFRdcv3fncXmdBmtGAEc9CfDRejRpMLKyQV1e2/zkeX2tGkWoNi3RpiNfIKYXCGW2NpRqw6hWDED8Kz6cArw6GkrjQykKpSg9hp2/dHH4Z596B/iv37ypvLqKmdB1GKrHMR2O6TC0tqnx2KmTPgH+MJfj1sN9R2qqRqNh/PufzF7evSc7g8GwefNma2troVA4duzY6upq5gUxUCMBIYgGIaoa1Q9LK24/Krn58MmFa3fWbkmJX7V+edLWjNzCkqqmeg3eglB6WnoGIEzj8/rmSzcf7DxwbF1y2qFTeTceVdRoiBa8TW98oaf+NAPg2EYr0YS/Kj16kAKtvdYMBF5eXXUqO2vvoYOPy0p1KNJhTmeiIkyPoRU11WMnjJdYSYUi0Q8zZlRUVDDNjS+J/fnne7JraGhYsWKFRCKRSqVTp07VaDSMX8BAiYlq1Ogfl1fuOpj+S9yy6XPnz1m4dNb8+P98/+PMBUtWbdqx73hOTuGNe0+eVzXpNZiR0Z0Wox48LT+QkT174bKPR0/8dPz381b8nll4r7wRqze0aog/2enIF3ryBT2Qje/EDiEJPYY2qlta9LoWvY6OwHGEJMzGoFQb9NtSd7h7esAczoCoqPz8/Dclpt6TXVVV1bfffsvj8aytrRMSEhAEYT4cFCfqm9W3Hxav3bQ1YuBQp249O3X3DFRFTpg6a37C6uXrt+44kLH7aFbqwYxDJ89cvVtU06zT4kaEalWjxN3HZSn7j85auHzY6Mm9okaEDR49cc7SbQey7pY11uqMjXpjM2rSkm0aok1HtGHGNpQyYgTodWUuUPl+g+IYGZoZISShw1CwUu4ADiFBaGkgcB2G3n5wf8TnI/kCgXMn59TUVKY1+E+9vbx7T3ZlZWWjRo2CYdje3j4xMZH5ZDAM1+oN94qKV6/fOGzkKK+gEM+gkOhhn/64cMnG7bu370tfuWHbms2pyXvSt6Yd3r43/UTuhZLntc0GnGZHPix9vuPAsW9nLhz0xeT+n/yn7/Dxw8bNGD9j8S/Lf0/eezzrwo2SqqYmBBDUEW1EK/B69KTRHrvQrpZ67Wj9OztGdB3xMeAY6RU9LRn99TiBUGhja7t161YURV/ieuXP92T38OHDjz76CIIgFxeXLVu2IPRV39Bw78GDPQcP/fJr3NRZcxevWLNj3+EzF6/dfPT0YVn11ftPDp0+m3rwxLa9Rzds37t2y44de49cu/OoXq03kCYtTpXW1O88fGLoqMn9h/3nyykLRn23cOwPcVN+/m3W4qQFKzdtTks/ce5K4a3iaw/KisrrKht1ADpokn3F6Gnh9f6uo8rezq6s8vm3UyYLRSJbO7vk5GSmcekVbPRf3pPdvXv3IiMjIQhyc3Pbs2cPiqIYhpWWlmZmZ2/fmXY44+SZgsv3S8qfN6jrtOiz2pbnjbonVY23isuv3Cs5e/nO7vTMxE0pSZu3Z2SfK6uu1xNG1Nha06LdnX4ycthXfT8aM3HuinEz4sb+sPjnFVuXb9q7/1RBZsHtg6fPr03e89um1LT0zNzC6/ceP3te39ysRxE6jqE9oAkF6//Xq68jO7PKzE+anzEQeOnzigmTJgpFIicnp9TU1A/M7ubNm6GhoSwWy9PTMyMjA0VRo9H45MmTM+fy8gouPnhSevHGnaz8wkMnsrbs3Lvm920bt+9O2rZz3ba0tPTMvGv3C28VHTl9duvOfYczssqq67DWNh1BlVbXbd97OHL4lx99NXnCrPiozyb2Gfb1xxNmff3DogW/bdm4Mz1hfcr46b+MmfJjfOKW/Rm5l+88ulP09P7jUgPVZqDaPhQ7PY5dun5t8LChfIHAtVvX/fv3M9mND6A7xjHn5+f7+/uz2exevXqdOXOG6f6tr68/X1CYnnFi2eq1n4+dENxvgLtvkMKpi5tPUOwnX8Z+8qV/+ICQAR8lJG29/fj57eJnOeevXL51v16jR41ttS3a/Ms3EhJ//3ranC8mzgqM/Niqsy/Pxs3Czt3SoafEycPZI9TJI8TBvZdnaPSIcVNXbkg5c+nWvafPy2oa9dQLAzAmcPm3utMghu27dnZx68bMs1evXjXPRX/B985jltnPkJWV5eXlxeFwVCpVQUEBhmEGg6G0tDRp/fqPP/vcydWNL5HxpQpLua3SqUvEwOELElav/yPt07ETA/pEf/vDz8dyCspqWx5X1JZVNzTp0GY9eutB8ba0/T/HrVi0asOXE2fauQWyLB1Y0k6wVWdgMpd2kzhzZC6wxMmjd/9ZC5edu3y7XkfoyDY99QIxvqCDvn/LrkHdMm3GDyKplG8hmDh5Um1trclk+jDrChzHEQQ5efKki4sLh8OJiIi4fv06hmE6ne78+fNzfvqpf3SMb69gVWTsyLH/mTr754Q1Gw6dyLnx8Gn+tbuphzJWb96Reuhk7sVb9548L6turG3RtxhwDUbeLXqyOSVt8cqktclpsxetihoxvnuvKBefPm6Bkd2DBniEDvTp81GvqBG+fYe6+PSxcvaQOnZ3dvcf9Z+p2eevVoI40YSZXjCBy/v5O2Z1oUWRA+lH/HsF8S2Fnn6+u3an6fV6Ju32F9G9cy6AKWwbDIbDhw87OzvzeLyhQ4c+fPgQx3EURZ8+fXri1Kntu9K2pKSm7juUkX3uTMGVnAuXT50tOFN4/Xh2/un8y5fvPn5S2VjVbKjX4U16Qo2QGozS4lRRWcUfafuXrN6wMWXfH/sytu079euqraMmzek/bExQ5McRw8YMGTV51OQ5Y6fNGzv1l7HfzR0xdoq/Kipi4PD435KelNc2ajHc9AI3tmFG0/uxQwi8SaPOyTs39JOPLcUiiZXVV1+Pu3XnzmsVx3B8tzHLJNz1ev2ePXvs7e0tLCxGjx5dVlbGbLdAEKSxqbmmobGipq6kovrR04ort+4fOn467cDRs4VX7j4ue/y8tl6Lack2LfGiBTWqUUqLGbVgzUuVVtbsP3pyS+q+lP3H0rMKsi/ePXj6woYdh+MTt33/c8Kk2Yt/WbouMXnvjoOnj+VeunCj6NzlOyl7j6zZsHX3waNV9WotShGmFwSdYcVA3qV9VWuO7EBSgI6EmWfMs6p5ni2vqtx78MAXY74Sy2QsmNW9Z8+UnTub1S3/Ko/SHrbTfzD60uv1W7dulUqlQqFw8uTJVVVVzIdDl4EQA4LqUFyL4g1qXUVNQ1FpRdHT8tLK2iYdqkYJLQ5yJBrM2IIQGpTU4pQWJ3UEWVHbcKbg8v5jpw8czzp44kxOwe2r98qKK5ofPWu49ajidlHF/SdVj8pqy2rVdRpMh5u0mKlZjzeqDS0aBCNaCaqVpI3Jr4A6EEURJqMeQ5kFA240Um2teKsJNYEIRoehWhS5V/QoNz8vr+BC8o6Uyd9PCwjuLZbLWDBs5+Q4fdbMu48eIm+Iiv9b3f2dnU6n27hxo6WlpVAonDZtWnV1NZM0ZnbRohiGgNQ5CTKaOMgJG+gtcmDBTxpbEKxOra1qbG7Q6jUYwYDTEWRNc/OdoscZWedS9h7elnYoI7vg7uOqBq1Ri73Q4S/0+AsDWMMCQ6kXKNGG4CYEp3DCSOAmimylSJORaqUokzmvZzKZWl+8wIwU2dYK1g9GEjUZDRSBGEms1YgbqQuXL40aN9bFrau7p4etkyOHD9qb2XyecxeXxUuX3Lp/z4BhTNv73z3d+7NTq9WJiYl8Pl8sFs+cObOmpoZhx0zBGA5qgkweuD2dSYCMsQ4nWhC0Uae//6Tk3uMnNc0tWpwwW5NOX1ZVm51X+Efa/s0pu3fsPXrqzKXSymYtZmIcGe3L2ugqhxHFjRhOYThJ4BSJG0ncSBEminglIYoThFqnLa+qvFf0qPDa1TMF588UnD93sfDijevX790pKX92+fq1KdO/txSLWPSeXC6f7+jS+dMvPt976MCzyuco9c/bfP7Z33XUHePvGhsbly9fzuFwpFLpnDlz6urqmPZz5n+CcU1nU2jpMSUIQotiWpzQoFijVnenqOje4ye1LWotDjoFwfMY3oKgtS3aO49KTp+9cOh45tYd+zdv35d7/oCTYT4AACAASURBVHppZZMWMyEEKAkZQEmIRHCQg8dxEvTRYiRFVwPBxgiCIujt4ziOq9XqJ0+eHDxyeGHc4tghg4PDVT6BAT4B/n5Bgb3CQsL795s0beqm5K1LVyzv1NWVzefBbLZLV9dZP829evOGFjFgRgo3GRGwrfRt1zuwYzKoGIbV1dUtXryYxWLJZLJ58+bV19ebG6lBMoMAhWgDQepxusSHEw1qTU1jU51a3YKgagStamyqbQH3ZnY6Arg8DUbWa5Bn1Y3Fz6qzzl3emLx7y479eRdvPatu0uNGzNiKUnTRA7Aj6A2zoHxGASMYw4EUyfr6hqPHjk2fMSMwKEiuUPAtBCw2G+LQBirwEAtmiaVS1+5ugSHBCjs7sFeazx/26YiL165qEAMzq6D0bPOmGvA7j1kzu/+X6Zw3bx4EQXK5fOHChQ0NDRiGMf/KpN0ZdmoDUq/WPHr69NKNGw9KnlY1tTQjmAYn1SiuxggdaQRGGbUEpcFJg9FUq9aV1zWVVNY9Lq+59aj0eFZ+yp4jh45nXb9bVFnfosOo9tCXBHV7er8xTryk9pId8fTpszVr14f16SeVKehNMyyepUiisFY6OcvtHSVKawuplCkqsmCYw+WxOTwIZvNFluMnTSqrrDRPxwhJoGSHcyRep7930B2os9IRdmVl5dy5c5ltwHFxcQ0NDcyYNdLHPhD07gQthjdqddfv3k/Zs/fo6azyuno1TtZpDSVVNXlXrp2/duPuk6dPq2vrdQYNQWkJ44XrNzen7p4579dvp8+et2TFgYys/Cu3L91+lFtwNe/S9TtFTyvrW/Q4SJ2jtJfDcIwgcPDTAXzMGCZaWrTrNmyWWzvQ/VQcnlBq49TFw7+Xd69Q/7C+Aaq+vsGq7j7+XXp4Wdk5Qhw+aJQBOuQIpLIx33z7qLRMRxCYkVmZgEDng+nu5ekxWEVFxejRoyEIsrGxSUhIYPwds3McB9MrqcWIRq3hxv2H+48eP5Rx8k7Rk2YD1mhA7z19lnY4feIPs4Z+Pmr8d9/PWRS3Lnl7yv6DK9dt/HjUmJ4BvRxc3d39gr4cP2n7nsMPnlY2Gch6Lf6otCr/8s38S9fvPHpc1dCgQQ0YRaA4hhMYcHhgoiVMJlNtbf2mLcnefkEQxOUJrBw7u3fr6ecdGOof3DcgNCIgDJh/aD//0H5+IX17+vfu1N1DYmMPc0FTFlsojogdmHuhAHw2RhMo0dHdxsyu8NdpDjz3DrpjRiWKosXFxUwnip2d3cqVKxl2jOgQDFcbkCYd8uhp+dnCy+evXH9cXtmkR9UY2YJRxc+rd6cfnzJ77sejx0YPH9Fv4EcxH3/a/6Ph3sFhXr1DVdEDPx8/cWni+hNnzz+rV7dgRh3VpsZbn9U2Z+Vd3Jd+8sjJrKu379Y1NyIkhhIoTqAEQc/qqE7d3HA0/Wjf/lFcniWbK1bad/XwDQ0I7h+kig4Kjw4Mi/ILjfQN7e8bAswnJMI7uK9XL5W7fy/rTl05lhKIK3B07fbTosWPyysQo5FpdEeApsH1wdjp9fpbt271798fgiAHB4c1a9Yw/o6Jv3UIUt+iflZdW3Dt5oVrN0uqatUYqcbJJoRQE6ZGlHha21Bw617+tVuHM3NXb0r+KW7ZlNk/j/tu+qpNySfzCm4WPy2ra6434Brqhc70QkO1NhqIksr6zHMX96WfStl96GTOubrmJsyIo3SDDwHwGVBEXfLk0dSp31nJbVhsSytrF3fvkKDQ6MCwmADa/EKjfUMG+ACL9A4G5gMI9gMEg/vYubpzBGI218I7qPfmHamNOrAnQQ8mdCDsD8lOq9UWFBT4+flBEOTk5LR+/frm5mYmB4UTRItGW1Fdc/3ug5zzhafzzt9/+qwZxbWksU5r0JkADpqISUO11hvw0rqmB88qbz0uu1FUUqXR1RvwFsCXbECIZtykJls1ZGsLbnpcUXfoeG5y6qGtO/afzMmvrG3EjUbQLADAIQRhQAwt+/am+vl7s7kWApFNp66+fr0je6liO7KjwTH4wKN3MFCfbygwjyCVTaeuHAsRX2wVO2z46bPnQLUbb/9wPjC7s2fP9uzZk8ViderU6ffff1er1QaDAYR1GNbY3PK4rPzshYuZ586fOpt/40FRrVqnIahajb6yRVel1ldrDNUapKy+5c7T8ofPqsob1c+bteWN6vtllZkXLmWcPX8sN+9Ybt7JvIJzV289rqx/3qi78aB07abUuOUb1m9JyzxTWFHdCCrcIBhqZ1dW+mja1G+USglPYKm07drDJywgNDqIZucfFuMfFuMXGg14dTCv4P4+wRE+IYz17eHfW2bvDHH4cnuHqTNnlVZVazEQ4X8Y3ZnHvFarzc7OZg6m6Ny589atW7VaLcMOQdC6hsb7RcXX796/eP3Wscycwxmnzl28nH/l+p70Y+u3p27auSd5z4GNO9LiVq+btTBuwfLViVu3r9iw+af4ZUM+/yqwb6R/eH//8IjAvgOCI2Mih46YMG3mzHmLZ8+LX7Bk9er1f+zcdzwn71I7O4pkGmkJwnA+P6d3Lz+IBQlFVp1dffx6RwaqYgNVsQFhMX60+YZGe4dGeYUMYIyGyAzb/vTgjfAL7efq4cujG6J6+PkdOXmqWW9A6Fj1X+nuL9krrVabkZHh7OzMYrE6ssMwTKvVVlZV3Xv46GlFZWll1ancc4sSlo/9ZtKk6TPnxS9duHxVwtoNv/2+dcWGzfOXrZr965JfV65ZsWHL3Lhl46fNGDZqbP+PPgmOjA3oG9m7f3TIgIF+qggndy8H1x5B4QNWJG0+U3Dtyu1HF6/frapvBtVFwA6UxrSaxvVJqxztrVksltzavod3qH9oNACnivVTxTDmExbjFRbtGdpuXqFR3qEDGPMJG+AbFukXGuEZFCK1c2TBsESh/HH+gtLKqg/Dziw6iqK0Wu2BAwfs7OxYLJaLi0tycjKjO2a9UVxcfO/Bg5Jn5VoEu3nvwbxFcT18fMMjozduS7ly58HDsoriyppHFdUPy6sePKssel798Fll4e0H52/cyb9+J+/a7cwLl46fyT+Vf/FUfuGWtP0RQz62VNqHxwzJyM2vaGgpr2+iZ22EydDhFGjxKnv6eNaMaTwuzOawHTt19e3V318V6x8OzFcV4wMs1lsV6xn2p3mFxXiHRXuHRTFG4+vvHRzu2K0Hmy/gcLgjx4y9ee8+w878s//95p9jlI5fQ1GURqM5cOCAra0tBEGdO3dOTk7WaDTMmK2rq3vw4MGt27cfl5bqUKxJoz2ZlTN1xqyPRoycNW9B9vnC6w+Lrz98XHj7/oWb92i7k3/99vkbd64+KL509+GNohLG7j4tv1FUkp599vMJE/1U/RYuX11W29CMEg06Q61Gq8WZ3a0g7scJ9Mnjh8OHDmJBEI/P6+ruGRgW7R8e60ebjyrGWxXjHRbjpRroERbLmGdY7Et20TTB6HZ2IX26evlZSOUwzO4bFZ1/6dIHiFE6siNJUqPR7N+/39bWlhmzZnYkSarV6tLS0hs3bxY/LVXrDabWthad/kHxk9XrNwap+vqGqKKHfzpg6CehUQNDBsQGR8YE9In0Clb5qfqFRg0MjRoYNfzTwSNHfzJmwucTJg79csyAYSMGDPt0/rJV955WIK1tiKlVjRNqnNBRJNh0QeAGHENQfXHR/agBfdkwSyQWdvf0C+oT699noG94rG94rHdYtCewGE8GnArgey07n7D+3sF9uvsFKp06sViwV2DgqdwzBrrb9N/6u474GN1ZWVlBEGRnZ/fbb7/RR6iBMwxB3rix8UlJye2798qrqjUGBCEoHYbff1yyesMmr6BgkdKWK5ZZiKyEchuhzNpCLDMb31LKtZDAAjGLI2DBbKHSLqjfgGXrfr9Z/FRDthpMbRqC1BCEjqL0f2MXPSCCxYIkUpGHb2AgrTjf8FhGdF6qGE9ad57hAxnzUg30VoF/NZuvKtpPFekd0sfdL8i2kwvEZtt3dtm6I1WHIKAp7d/Exh3BMQdApaenOzo6QhD0/7ZFxcXF1dXVoSjo8WPKQA0NDTfv3rv3qLiqvkGH4pixVYsR9x4/PXD85OwFi4Z/OXbqnHkLEn5btDJxwfJVZvtu9s8jx33TJ3aIb2hfr96q8VNnJO8+cL+sohmnNKRJQxq1JKkladG9ws5QXPQgNjYKgiBLsaiHT2BgeLR/eIzfS2dHezowZv/CzrsDOx9VtK9qgHdIX3e/XjadukBsjo2D49rfNzdptCDF9QHZoSh66tQpd3d35qycOXPmVFdXYxjGJDZA2h1Bahsan5Q9a1RrcKMJM5owU5sWJ2ua1Zdv39t79MTxnLzLdx6U1jRUNLRUNKgZe1xRc+1+cfaFSwcyMncfOX75zoMatUFHtuqoVi1p0tJNrzqK0FGEniI6jFmkqOjRkCGDIQjiC0XdvQKCALsogC8sxhfoK9YrLPYv7LxUsV6qGLN5q6J9VFHeof17BITYdO4KsbkKa+u4Faue1zUiJAXahf4in5d/fbe5guniKygo6NOnDwRBYrF4ypQpz549M4MDqWMChJRavR7BcJICbV6AoKlNR5BlNXV5l68dOpl5LPts4c07xRVVlU2aBj3aoEfrtEhlk7qstqGovOrx85oGPWowvaDBgSQVvZmaBNRoAxulgL/DERR9/vz52LFjYTZbIBR18/ANUPUP7BPtGxYV1HdwQJ/BvqqBHcF1UF8sTRA80hqM8gnr3zMwzMalG8TiyZXWi5b9VlHbYAC7W0An60tcr/z5PuwePXrENPJYWlqOHz++pKSkI7tXXh70z1KE0YSb2lDK1KxHi8srr959cO7y1cz8gpNn8k6eyTtTePncpatnCi9nnS84de78yTN5BTduNegMWFsbzY7SgswoAXIbFGGgcNoIep8ZbkDRpuaWZctX2NjZsWC2rZOLT2+Vvyqym09IF49eHkER/n0Gv4EdYPrSYoH0wiI9eqlsu3SHYJ7c2mbR8tXltY2GD6s7FEXr6+snTJjA5XL5fP7nn3/+4MEDZsy+wa3S7OjBi1AmDUq0IHhFfdODkrJzhVf2HD66ffe+XQcOb9+zb8feAzv3Hzp6OrvwOmCHt7YZQO8xpQOb+BlqqIFCDRQG8DHSw3A9imXm5PoH9WKxWDyhqHN3DzefQAuZPcdC6djVzzfkFWdn1l3HG69wMIR9wqM9gvvZdHGHYIHc2u7XFYnP6poQkJB+05D9L3JQHXXEVHMaGhp++OEH5nTmYcOG3b17l8m5m9kxuTzmkaSMQHe0YcY2zPQCBePXqEGJBo3+eX1T8bOKh0+f3Xtc8qCkrKi0/Fl1XU2TGhyQYwTs9O3scBoZYqAQGh/NjiT0OK5D8ZLyiu9+mCG3toFgtszW3q5LN4grZHGECkd3r96Rr9VdR3ae4bFe4TG+fWI8QyKULoCd0r7T0rW/VzSoUeJt5zG+25hl6rP19fW//vorl8vlcDj9+vW7ceNGx3oFw9qM7+/ssNYXrzfTC9TYhhpBRxNj/8gObMPACT1G5Oadjx78EViQcrg8oQjiWkCwQGbf1atXfzDVvgxQ3nDDsIv1CI6QOXWDYIFTd+8taQdqNShKGM2C6Kgh5v6d2TFrr/j4eD6fD8Owv79/dna2Tqdjjsw0v9Mb2LViphegZkgb6CDpyPG17EgjPWZfozumpG8gSJQyVtU3rN3we08fPzZz+jGLy+IIrZ16ePce4P2G6YLhSLs8ZszGdPULESgcYDY/JHLQiXOFDfTGXfNP9MHYJSQkMOdUurm5HTx4UK1WM6UM8zuZ2VFgzIJhS1srYWojTS8Yw/8LdmBHE/B3b2IHSnHNWr2BIEufV/26dJlTFzd66wkb5orsXLx9gqN9/oEdWO3SU210J48AtkjO5fK/nTH34bPnWrDt6IP6OwzDNBrN5s2b7ezsmKVFYmIi4wfpJGu7Z+3ADtQ5yJdGGVuNxjbGSFMb/qphxlamlkiXKEGBnK6Ok2BmAFPEK/6O1h34D1rQ+gC2Vz16Wj7r54U8sQKChRYSe1ePYN+QWB/VIG/VIE/VIM/wP808wzIxircKTBQyp64smC2Q267asKW8rqkFxQ10+fdNk8W7jVmGkcFgOHjwoJsb+IT5fP7o0aMrKyvb2trezM5M0mg0mowAHzDKBGT4F8NBHdbIdBGDc62A/QM7BFTmTC06JDuvMOajETBfzOaIbZ17egT09wsd5Bs22Fs12Es12DPcbIOYocoozlsV7RXa38HNiwPOUmJ7B6uOZp/RYKSObmf4+w4Y8+B9N3ZMLg/H8YsXL/bq1YvZq927d+/CwkIzO/OwZWpDZmzMjRFcJsYok4kwga4vZvlhhmggyEa1tqFFozYgejpr8nbdISSlNqCZZ/JHfvW1UCyDYJ5Y5ti1Z2/fkBi/sME+oYP+yk5lZgcSLT6qaPfAcKl9Z4jNlVjbzlyw8EllNWJq1dG1eZqdGdcrN+/MjjnA7+nTp6NHj2ZOXHR2dk5KSjIYDOaRa36Hv4BjqpQ0PvBAswMqY4wwtWpR7H5R8YEjR+cvipv98y8rVicePHrsaUVFvaZFRzDB3Z8xih7H9eA0e2OLznAyO/eTkaOsFHYsroVIZtfF3d8nqL9vcIx3cKxP6CCvsEGeqnbReb0CLtotILyTR6DUwZUjEPNFkiGffZ535aoaI/QUaKAB57i9uUr7PuwIglCr1StXrmRcnkAgGDZs2JUrV1AUZRrx/kt2TBUcbK0GDRhEVX3jvsNHJk37PjJ2kK2js0gqk9vad3Lt+tWECSdysmqaG7S4TkfozfEdOEKAMtY3txw5fqJ/dKxAKIJYbAuJwsXd2z84onf4oEDVYL/Qgb5hr/g7Jo8C8nqqKO+wAQ7uvny5A4sDjhrxDwvfdThdS1J6o1EPNt6STB39w/g7Bgqz5z0/Pz8sLIzNZrNYLIlEsmjRorq6OgzDmJ0cTMnxtbozqw8DRwMQBoKqbdbcKy7JOnd+8vQZY7+ZOD9u6XczZof2ixTLlBAL5ovFIf36/pGWWt1Uixgxhh0CNigST8qerd2wsWsPcPI9hyeQ2Ti6uHv59Q4PCov07RXhFxIFaj2qgb506pheP4BwhAYX4x0W5R7UR6B0hmAhiy929Q5YsX5TZVOLBgcHkenANEWCWo9ZCH+7eR/dkSTZ2trKdFYwyXcIgoKDg48fP24+WfLv1Do+A84AB+cZgDmhUau/cuvuD3N+nvj9jIHDPpn+40/7jhzbfSj9+x9/6ubpbSESgwNX2Gz/4F770vc36ZtRI6bBDJX1dfkXC7+fNYs5QQHMWhaWNk4unbr2cHBxs+/k5uzq6dozoKe/ClRjw6J8QLIk2rdPjE94DL16jeoeEG7X1RvmW7FggY1L9+k/Lbz/tFxPmZj6rIHuSPq3fVB/ww2eYD6PjIyM3r17M8d8WFhYREVFHT16VKvVmkwm896/jsjM9yR92JeBICvrm84UXJoXtzSkX+RnX42LHfrJooQVJ3PO7jl8NHnn7k9HjXHz8lE4OHL4fJFE9MW4UQXXCmub6s9dLFi8PKHfgEgrhYJFH1fOHIPE5glAjwTMBQexsHgcgURi06mLZ5BXSIRPWKSPKiqw/6DAiEE+YQPcA1TKTu5sgRUE8Tg8y+hhn2Wdv6gBHUaUgQIRpYHAwYB97Q//8sl31h0TiDDNO2VlZXPnzrW3t2dO/RSLxTExMWlpaTX08ZxMG6iZF3PDtF7gBKHRI+U1dQePn/xl8dJRE74d882UZYnrZvy0YPa8RRuSUxYtX7Vx244JU74PCA3v6ullZWsDc2CX7l3GTfx6xs+zBwyKsXN04PLaD6Klg2EWi83h8C0kMoWtvZPc2lYglMBsHsQWiK2dXDz9vYL7eIf28wsfENA3umdQuLKTO8cCHFEGsS1hDr+7V2DCmnVFpeWI0cT0o9B9UOC8rrdc78yOeS3mhBkURQsKCoYNG8YcD81isQQCgYeHx4wZMw4dOvTs2TMEAbn4jhfDDsWwhhZ1Tt75L8ZN6Bc7pG/M4HGTpy1ds37mL79+9c2U7+fMG//dD1NmzY0Z/mmgql8PvwBrZyeIA7O5bKFIKBRZcrgccHBU+9lREMzjCSxFbj09P/1i9MK4pckpOzds2TZzzi+BISqhVM4SiETWDi6efr5h/XpFRHv2Dndw84IFUggWcIQKkcIJYvHZPAvPgN7LE9eV19QCdvRhqf94wsM7s2N0Zw5HcBx/8ODBF198wfz+CmYrvlAo7Ny587BhwzZs2JCXl/fo0aMa+tJoNEaj8cWLF0aT6Wz+haGfjhRYSlh8S6mdk7tfL8/AEK+gUK9ef5on2AkZ7BnUq6unh5WtksWhD4xiQywBTyiTWlpJ2VwuzOc7d3GdOWdubt75iuraJq2BOXalRYdmnTsfOXAIi8WGOTybLt29Q8J7BAbburrzZbYQXyyUWscO/2JF0pYvvp5kZW3P5vF9evU+kJ5Ovmhjmu/ekn1iBPRv2TG7P589exYXF+fq6spisWA2G3Tw0jcyudyli6uPr29oaOiYMWOmTp06f/6CxYvjfv5lXv+oGEupnMW14Ilkrp5+viF9/Ok2r/ZmL1WEf7v19Q/r492rVzfPnkpHG4WDTWf3rl16uFs7OkAwzOZwuvbouX7TlvtFxWBZRhr1oDucwqhWY2tbeXXdstVJPJEVzObJnbq4ePoqnLuw+JYsmCe1doweNvL3lL1nLt5I3Z8+ZMQXEpmSbyn6bNSoG3fvoCToTXvrHAvo/St2TEoKwzAEQdLT0wMCAgQCgdDS0qlzZ6WdvVAk4fIFLDb9692AIMEvuBCLpRKJlUgs4fAsWDCXxRZIbZ2C+gzwD40IUEUGqiIDwwcEhg8IaLfIgPD+AeH9AsJUAaGhPr0CvQL9g1Rh3b19pNb0mc6uXeMSllfV1SMEhZJGPUYipAk3gpZujDLpMPxU7jnXHt4g0JEqRdYOMF8EcfhSG+cRX/1nW9rhE2cKs85fPXfpRtLmP0IjongCoa2T8+/JyXVNjQh9KvBbnN0HYMcEdJcvX/7000+FQqFcoRj00dD5i+LmzF84fvLUIZ+M9A7sLZRYQRDM4XCVNvZKG3uxVM7jC0HXL5sH88UOrj2C+8f6hfb3CxvgHxblHxbtD4p+jEX5qQb4q/oHqPoGhfcN6tPHNzg4qE9flx49uSIxXyj6bNRX127d0WP4n0tgcAwDOPsCBcf1vrj76HH0kOEQzGGxuSwuH2LzbTt3HTn2m21ph47nFBzPKTyWfeF03uUjp3Jn/vKrtUMnNpf/2egx1+/c1YL0Ajh54y3Xv9UdjuPl5eU//vijQCDg8XiqPn3Wbvj92OnsU2fyT58rOHA8c+6vS5y69WDB/K7uXlO+nz3nl0UTvp3m3zsc5lpALDYskDp08wjqG+0bGgl4Ma03fysA0uO3r7+qr09wWK++EZ3cPWCBpVRuPfvn+dX1jR32I1DmFR5KGQlTW3Hpsy/Hfg3zwLH6MJfX2c190vTZ+46dPpp94Wh2QXp24dHsguO5hSfPFq5LTg1URbA5vG6e3kdOnmrS6UFt+y2R8XuPWWbtheN4Y2Njamqqm5sbi8Xq1q3b4vglp3PPnD6bf+pcQdb5y+lZ58ZN+cFCZgdzRX0GDN53+MSFSzczcy58N32OldIBYnFpdp5BfWN8Qwf4qeiqYCjogqAzHCCz5gOejPJTRfqpIvxU/bxDwgP79O/cwxO2EMlsHeYtimtQa97C7nHps4nfTROIpRwLYXdP71k/zzt2OvtEbv7R7AvpNLv07IKj2ReOn7mwO/3E519/y7cQWSqsVyatq2poROlC1YfXHdPYjuP4lStXBg0axOVyZTLZxImTjmWcyD6Xn5l3ITP/0un8yyn7j0YPH8nlCzhc0RdjJx7OyMnJu3z81Nm1G//wCQhjsS1hgdS+q0dQ3xg/VbRvWIxPWKyPaqB3WCyT7PVWDaTZRfupBvip+vupIrxDwgPCI1w8vNkWIolMOX323Oe19UyajyYIdEenrcANYWoreQZKGUKplVShHDzs4137DuRdvJx+Kvdo9oUj2QVHcgoZdkezzx/Lzl+Q8JtD1+4coWjstxNvPXjYotV9YN0xnwOGYUajsaWlJSkpydnZmSlc7EpLO52VfTr37Omz50/nFZ7Ku5iwdpOrVwAL5lrI7ObMX5Kdd/l0zoWsM4UHjpz6YtxEsdyBxZPInFxpWUWDtqWwWK8Q0OnlReP7OzvfsL7+qn5uPv6WMiWbyw8KVe0+cKi8uqZZpwfH52FExzGLG1ubNLrtO3e5uHXn8AUubt1/+XVxdt6Fo6dfxy4nf8W6Td19A1gw7Nc7+Hhmlhb8rr23yO7d51nmxZj47vr16yNGjODxeHZ2dnPmzMnMysrMyTmdc+ZU7rmMnLyDJ7JnL4y3ceoCDtx17rZqffLpM4Unss6fyik4kXU+bvlaD79QFteSK1I4d/fxCYn0DY128+/j5t/HKzjKmxagzyu6Y4ZthG9oX4/AYNtOXSCYa2Ep9g3sPXfewuSU1Fv3HqgNKEYxRwYA9QENEmRxadkPP85R2NjxLYR9B0T9vi3lWNbZdt1l/6m7jNwLW3ftDY8eCLFY9i5dkn7fVN/U8qaqNgPhnecK5ssoijIYDAcOHPDy8oIgqHfv3lu2bMnKysrMyj6VnZN5Nu9YVu6eI8e/nT7LCpxdxfEKDNu++3DmucvHTuenn8o7debi9rQjwz4fZylRgl87qXTq7hPSzTvYysHNurNnd/8+3qHA99EWQ/faMBNuJFBoaIR37/AuPX14IhkEc9kcnpXcplt3j7nzf33y7DmTdmZGLjiEy2jS43hu/vnImFguny9VKj8f8/XeIxnA3+UUHgEuD/i7o9nnT5wtOJBxesRX4yAIltvaLYhfUlFd8z9hR5KkTqdLSkqys7PjcDiurq69e/eOiIj4ctSombN/SIv7HAAAAMFJREFUXLLit7SDR7bv3j9s5JdcgQXXUjpq/OTj2fnZ+VdP5BYePZ1/Ivfi0cz8ZYmbfHqFszk8Fiy0sutiZd+VJ7az6ezh0SvCNzTaNzS6vXEzLJqOXQb4gyBmgB9o9e/nGRjaubuXROkATvmFWFy+xYBBHxVeu4GZTGC/Ikk3DpAEagRnuNU2Nydt3uTaHUxoYqX1d7N/PnAi99iZi4ez2tkdy71w4mzBqXMXFq1YZWVrbykWj580+UnZs7ez+/8A+PXMQAhEVCwAAAAASUVORK5CYII=;fontSize=16;" vertex="1" parent="1">
          <mxGeometry x="537.5" y="130" width="105" height="98" as="geometry" />
        </mxCell>
        <mxCell id="lbgxpwjEB8n5JkEXpVQK-16" value="TCP三次握手" style="text;html=1;align=center;verticalAlign=middle;resizable=0;points=[];autosize=1;strokeColor=none;fillColor=none;fontSize=16;" vertex="1" parent="1">
          <mxGeometry x="340" y="222" width="120" height="30" as="geometry" />
        </mxCell>
        <mxCell id="lbgxpwjEB8n5JkEXpVQK-17" value="" style="shape=flexArrow;endArrow=classic;html=1;rounded=0;exitX=1;exitY=1;exitDx=0;exitDy=0;entryX=0;entryY=1;entryDx=0;entryDy=0;fontSize=16;fillColor=#fff2cc;strokeColor=#d6b656;" edge="1" parent="1" source="lbgxpwjEB8n5JkEXpVQK-5" target="lbgxpwjEB8n5JkEXpVQK-7">
          <mxGeometry width="50" height="50" relative="1" as="geometry">
            <mxPoint x="340" y="330" as="sourcePoint" />
            <mxPoint x="390" y="280" as="targetPoint" />
          </mxGeometry>
        </mxCell>
        <mxCell id="lbgxpwjEB8n5JkEXpVQK-18" value="我是老王，老孙在不" style="text;html=1;align=center;verticalAlign=middle;resizable=0;points=[];autosize=1;strokeColor=none;fillColor=none;rotation=10;fontSize=16;" vertex="1" parent="1">
          <mxGeometry x="285" y="298" width="170" height="30" as="geometry" />
        </mxCell>
        <mxCell id="lbgxpwjEB8n5JkEXpVQK-19" value="" style="shape=flexArrow;endArrow=classic;html=1;rounded=0;entryX=1.017;entryY=0.965;entryDx=0;entryDy=0;entryPerimeter=0;exitX=-0.017;exitY=0.061;exitDx=0;exitDy=0;exitPerimeter=0;fontSize=16;fillColor=#fff2cc;strokeColor=#d6b656;" edge="1" parent="1" source="lbgxpwjEB8n5JkEXpVQK-11" target="lbgxpwjEB8n5JkEXpVQK-9">
          <mxGeometry width="50" height="50" relative="1" as="geometry">
            <mxPoint x="480" y="420" as="sourcePoint" />
            <mxPoint x="530" y="370" as="targetPoint" />
          </mxGeometry>
        </mxCell>
        <mxCell id="lbgxpwjEB8n5JkEXpVQK-20" value="我在，有屁快放" style="text;html=1;align=center;verticalAlign=middle;resizable=0;points=[];autosize=1;strokeColor=none;fillColor=none;rotation=-30;fontSize=16;" vertex="1" parent="1">
          <mxGeometry x="310" y="418" width="140" height="30" as="geometry" />
        </mxCell>
        <mxCell id="lbgxpwjEB8n5JkEXpVQK-21" value="" style="shape=flexArrow;endArrow=classic;html=1;rounded=0;entryX=0.017;entryY=0.959;entryDx=0;entryDy=0;entryPerimeter=0;fontSize=16;fillColor=#fff2cc;strokeColor=#d6b656;" edge="1" parent="1" target="lbgxpwjEB8n5JkEXpVQK-11">
          <mxGeometry width="50" height="50" relative="1" as="geometry">
            <mxPoint x="290" y="520" as="sourcePoint" />
            <mxPoint x="410" y="490" as="targetPoint" />
          </mxGeometry>
        </mxCell>
        <mxCell id="lbgxpwjEB8n5JkEXpVQK-22" value="老孙你在啊&lt;div&gt;重大事情，你听着&lt;/div&gt;" style="text;html=1;align=center;verticalAlign=middle;resizable=0;points=[];autosize=1;strokeColor=none;fillColor=none;rotation=10;fontSize=16;" vertex="1" parent="1">
          <mxGeometry x="345" y="478" width="150" height="50" as="geometry" />
        </mxCell>
        <mxCell id="lbgxpwjEB8n5JkEXpVQK-24" value="" style="shape=flexArrow;endArrow=classic;startArrow=classic;html=1;rounded=0;entryX=0;entryY=0.5;entryDx=0;entryDy=0;exitX=1;exitY=0.75;exitDx=0;exitDy=0;fontSize=16;fillColor=#fff2cc;strokeColor=#d6b656;" edge="1" parent="1" source="lbgxpwjEB8n5JkEXpVQK-10" target="lbgxpwjEB8n5JkEXpVQK-12">
          <mxGeometry width="100" height="100" relative="1" as="geometry">
            <mxPoint x="330" y="670" as="sourcePoint" />
            <mxPoint x="430" y="570" as="targetPoint" />
          </mxGeometry>
        </mxCell>
        <mxCell id="lbgxpwjEB8n5JkEXpVQK-25" value="晚上洗脚按摩" style="text;html=1;align=center;verticalAlign=middle;resizable=0;points=[];autosize=1;strokeColor=none;fillColor=none;fontSize=16;" vertex="1" parent="1">
          <mxGeometry x="340" y="545" width="120" height="30" as="geometry" />
        </mxCell>
      </root>
    </mxGraphModel>
  </diagram>
</mxfile>
